<?xml version="1.0" encoding="utf-8"?>
<!-- Generator: Adobe Illustrator 22.0.1, SVG Export Plug-In . SVG Version: 6.00 Build 0)  -->
<svg version="1.1" id="Слой_1" xmlns="http://www.w3.org/2000/svg" xmlns:xlink="http://www.w3.org/1999/xlink" x="0px" y="0px"
	 viewBox="0 0 500 500" style="enable-background:new 0 0 500 500;" xml:space="preserve">
<style type="text/css">
	.st0{fill:#00ACE5;}
	.st1{fill:#F9F9F9;}
</style>
<g>
	<circle class="st0" cx="250" cy="250" r="250"/>
</g>
<g>
	<g>
		<path class="st1" d="M267.3,280c-2.3-2.2-5.9-2.2-8.1,0.1l0,0c-2.2,2.3-2.1,5.9,0.1,8.1c1.1,1.1,2.5,1.6,4,1.6
			c1.5,0,3-0.6,4.1-1.7C269.6,285.8,269.5,282.2,267.3,280z"/>
	</g>
</g>
<g>
	<g>
		<path class="st1" d="M254.1,267.1l-35.4-34.7c-2.2-2.2-5.8-2.2-8,0L162.2,280c-2.2,2.2-2.3,5.8-0.1,8.1c1.1,1.1,2.6,1.7,4.1,1.7
			c1.4,0,2.9-0.5,4-1.6l44.6-43.7l31.4,30.8c2.2,2.2,5.9,2.2,8.1-0.1C256.4,272.9,256.3,269.3,254.1,267.1z"/>
	</g>
</g>
<g>
	<g>
		<path class="st1" d="M139.6,104c-19.1,0-34.6,15.5-34.6,34.6s15.5,34.6,34.6,34.6s34.6-15.5,34.6-34.6S158.7,104,139.6,104z
			 M139.6,161.8c-12.8,0-23.2-10.4-23.2-23.2s10.4-23.2,23.2-23.2s23.2,10.4,23.2,23.2S152.4,161.8,139.6,161.8z"/>
	</g>
</g>
<g>
	<g>
		<path class="st1" d="M199.4,294.8H162c-3.1,0-5.7,2.6-5.7,5.7v27.9c0,3.1,2.6,5.7,5.7,5.7h37.4c3.1,0,5.7-2.6,5.7-5.7v-27.9
			C205.1,297.3,202.6,294.8,199.4,294.8z M193.7,322.7h-26v-16.5h26V322.7z"/>
	</g>
</g>
<g>
	<g>
		<path class="st1" d="M267.5,294.8h-37.4c-3.1,0-5.7,2.6-5.7,5.7v27.9c0,3.1,2.6,5.7,5.7,5.7h37.4c3.1,0,5.7-2.6,5.7-5.7v-27.9
			C273.2,297.3,270.6,294.8,267.5,294.8z M261.8,322.7h-26v-16.5h26V322.7z"/>
	</g>
</g>
<g>
	<g>
		<path class="st1" d="M382.7,319.5l-15.6-9.9c-1.9-1.2-4.2-1.2-6.1,0l-6.8,4.3v-23.7c24-2.8,42.7-23.3,42.7-48.1
			c0-12.9-5.2-25.2-14.2-34.3c0.1-1.3,0.2-2.6,0.2-3.9c0-19-15.4-34.4-34.4-34.4S314.2,185,314.2,204c0,1.3,0.1,2.6,0.2,3.9
			c-9.1,9.1-14.2,21.4-14.2,34.3c0,3,0.3,6,0.8,8.9l-3.2-3.1v-49.6c0-3.1-2.6-5.7-5.7-5.7h-26.6c-3.1,0-5.7,2.6-5.7,5.7v12.7
			l-41.2-40c-2.2-2.1-5.7-2.1-7.9,0l-104,100.8c-1.1,1.1-1.7,2.6-1.7,4.2c0,1.6,0.7,3.1,1.8,4.1l18.5,17.2c2.2,2.1,5.7,2,7.9-0.1
			l4.1-4v20.5l-6.8-4.3c-1.9-1.2-4.2-1.2-6.1,0l-15.6,9.9c-1.6,1-2.6,2.9-2.6,4.8v65.9c0,3.1,2.6,5.7,5.7,5.7l267.5,0.1
			c3.1,0,5.9-2.6,5.9-5.8v-65.9C385.4,322.4,384.4,320.5,382.7,319.5z M137.4,384.5h-19.7v-57.1l9.9-6.3l9.9,6.3V384.5z
			 M271.3,204.2h15.2V237l-15.2-14.7V204.2z M139.1,275.8l-9.9,9.7l-10.2-9.4l95.7-92.8l95.7,92.8l-10.2,9.4l-81.5-79.9
			c-2.2-2.2-5.8-2.2-8,0L139.1,275.8C139.2,275.8,139.2,275.8,139.1,275.8z M292,327.5l9.9-6.3l9.9,6.3v30.1
			c-0.8,0.3-1.7,0.7-2.4,1.1c-3.2-3.6-7.9-5.8-12.9-5.8c-1.5,0-2.9,0.2-4.3,0.6V327.5z M227.8,384.5h-26.2V361
			c0-7.2,5.9-13.1,13.1-13.1c7.2,0,13.1,5.9,13.1,13.1V384.5L227.8,384.5z M280.6,384.5h-41.4V361c0-13.5-11-24.5-24.5-24.5
			s-24.5,11-24.5,24.5v23.5h-41.4V282.2l65.9-64.6l65.9,64.6V384.5z M342.9,384.6H292v-18.5c1.1-1.2,2.7-1.8,4.3-1.8
			c2.7,0,5,1.8,5.8,4.3c0.6,2.1,2.4,3.7,4.6,4.1c0.1,0,0.1,0,0.2,0c2.2,0.4,4.4-0.5,5.7-2.2c1.1-1.6,2.9-2.5,4.8-2.5h0c0,0,0,0,0,0
			c0,0,0,0,0,0c1.3,0,2.5,0.4,3.5,1.1c2.1,1.5,4.9,1.4,6.9-0.1c3.9-3.1,8.6-4.7,13.6-4.7c0.5,0,1,0,1.5,0.1L342.9,384.6L342.9,384.6
			z M323.2,357.5v-30.1l9.9-6.3l9.9,6.3v25.4c-0.5,0-1,0-1.5,0c-6.3,0-12.3,1.7-17.5,5C323.7,357.7,323.4,357.6,323.2,357.5z
			 M342.9,314l-6.9-4.3c-1.9-1.2-4.2-1.2-6.1,0l-12.5,7.9l-12.5-7.9c-1.9-1.2-4.2-1.2-6.1,0l-6.8,4.3v-20.5l4.1,4
			c1.1,1.1,2.5,1.6,4,1.6c1.4,0,2.8-0.5,3.9-1.5l16.9-15.7c6.4,4.5,13.9,7.4,22,8.4L342.9,314L342.9,314z M348.6,207.5
			c-3.1,0-5.7,2.6-5.7,5.7V244l-8.4-8.4c-2.2-2.2-5.8-2.2-8.1,0c-2.2,2.2-2.2,5.8,0,8.1l15.3,15.3c0.3,0.3,0.7,0.6,1.1,0.9v18.9
			c-17.7-2.8-31.3-18.1-31.3-36.5c0-10.7,4.6-20.9,12.7-27.9c1.6-1.4,2.3-3.5,1.8-5.5c-0.3-1.6-0.5-3.2-0.5-4.8
			c0-12.7,10.3-23,23-23s23,10.3,23,23c0,1.6-0.2,3.3-0.5,4.8c-0.4,2,0.3,4.1,1.8,5.5c8.1,7,12.7,17.2,12.7,27.9
			c0,18.5-13.6,33.8-31.3,36.5v-18.9c0.4-0.2,0.8-0.5,1.1-0.9l15.3-15.3c2.2-2.2,2.2-5.8,0-8.1c-2.2-2.2-5.8-2.2-8.1,0l-8.4,8.4
			v-7.6c0.1-0.1,0.2-0.2,0.4-0.3l11.1-11.1c2.2-2.2,2.2-5.8,0-8.1c-2.2-2.2-5.8-2.2-8.1,0l-3.4,3.4v-7
			C354.3,210.1,351.8,207.5,348.6,207.5z M354.3,384.6v-16.1c5.1,3.7,8.5,9.5,9,16.1H354.3z M374,378.9
			c-2.4-10.6-9.8-19.4-19.7-23.5v-28l9.8-6.2l9.9,6.3V378.9z"/>
	</g>
</g>
</svg>
