<?xml version="1.0" encoding="utf-8"?>
<!-- Generator: Adobe Illustrator 22.0.1, SVG Export Plug-In . SVG Version: 6.00 Build 0)  -->
<svg version="1.1" id="Слой_1" xmlns="http://www.w3.org/2000/svg" xmlns:xlink="http://www.w3.org/1999/xlink" x="0px" y="0px"
	 viewBox="0 0 500 500" style="enable-background:new 0 0 500 500;" xml:space="preserve">
<style type="text/css">
	.st0{fill:#00ACE5;}
	.st1{fill:#F9F9F9;}
</style>
<g>
	<circle class="st0" cx="250" cy="250" r="250"/>
</g>
<g>
	<g>
		<path class="st1" d="M191.6,236.3h-32c-2.5,0-4.6,2-4.6,4.6v45.7c0,2.5,2,4.6,4.6,4.6h32c2.5,0,4.6-2,4.6-4.6v-45.7
			C196.2,238.3,194.1,236.3,191.6,236.3z M187,282h-22.8v-36.5H187L187,282L187,282z"/>
	</g>
</g>
<g>
	<g>
		<path class="st1" d="M269.2,236.3h-32c-2.5,0-4.6,2-4.6,4.6v45.7c0,2.5,2,4.6,4.6,4.6h32c2.5,0,4.6-2,4.6-4.6v-45.7
			C273.8,238.3,271.8,236.3,269.2,236.3z M264.7,282h-22.8v-36.5h22.8V282z"/>
	</g>
</g>
<g>
	<g>
		<path class="st1" d="M269.2,309.4h-32c-2.5,0-4.6,2-4.6,4.6v45.7c0,2.5,2,4.6,4.6,4.6h32c2.5,0,4.6-2,4.6-4.6v-45.7
			C273.8,311.4,271.8,309.4,269.2,309.4z M264.7,355h-22.8v-36.5h22.8V355z"/>
	</g>
</g>
<g>
	<g>
		<path class="st1" d="M342.3,236.3h-32c-2.5,0-4.6,2-4.6,4.6v45.7c0,2.5,2,4.6,4.6,4.6h32c2.5,0,4.6-2,4.6-4.6v-45.7
			C346.9,238.3,344.8,236.3,342.3,236.3z M337.7,282h-22.8v-36.5h22.8V282z"/>
	</g>
</g>
<g>
	<g>
		<path class="st1" d="M191.6,309.4h-32c-2.5,0-4.6,2-4.6,4.6v45.7c0,2.5,2,4.6,4.6,4.6h32c2.5,0,4.6-2,4.6-4.6v-45.7
			C196.2,311.4,194.1,309.4,191.6,309.4z M187,355h-22.8v-36.5H187L187,355L187,355z"/>
	</g>
</g>
<g>
	<g>
		<path class="st1" d="M342.3,309.4h-32c-2.5,0-4.6,2-4.6,4.6v45.7c0,2.5,2,4.6,4.6,4.6h32c2.5,0,4.6-2,4.6-4.6v-45.7
			C346.9,311.4,344.8,309.4,342.3,309.4z M337.7,355h-22.8v-36.5h22.8V355z"/>
	</g>
</g>
<g>
	<g>
		<path class="st1" d="M369.7,377.9V222.6h4.6c2.5,0,4.6-2,4.6-4.6v-22.8c0-2.5-2-4.6-4.6-4.6h-4.6v-18.3c0-2.5-2-4.6-4.6-4.6H356
			v-50.2c0-2.5-2-4.6-4.6-4.6H150.5c-2.5,0-4.6,2-4.6,4.6v50.2h-9.1c-2.5,0-4.6,2-4.6,4.6v18.3h-4.6c-2.5,0-4.6,2-4.6,4.6V218
			c0,2.5,2,4.6,4.6,4.6h4.6v155.3H114v9.1h22.8h228.3H388v-9.1L369.7,377.9L369.7,377.9z M155.1,122.1h191.8v45.7H155.1V122.1z
			 M141.4,176.9h9.1h200.9h9.1v13.7H141.4V176.9z M360.6,377.9H141.4V222.6h219.2L360.6,377.9L360.6,377.9z M136.8,213.5h-4.6v-13.7
			h4.6h228.3h4.6v13.7h-4.6L136.8,213.5L136.8,213.5z"/>
	</g>
</g>
<g>
	<g>
		<path class="st1" d="M244,137.8c-0.7-1.9-1.7-3.5-3.1-4.8c-1.3-1.3-2.9-2.4-4.7-3.2c-1.8-0.8-3.9-1.2-6.1-1.2s-4.3,0.4-6.2,1.1
			s-3.4,1.8-4.8,3.2s-2.3,3-3.1,4.8c-0.7,1.9-1.1,3.9-1.1,6.1c0,2.2,0.4,4.2,1.1,6.1c0.7,1.9,1.8,3.5,3.1,4.8
			c1.3,1.4,2.9,2.4,4.8,3.2c1.9,0.8,3.9,1.1,6.2,1.1s4.3-0.4,6.1-1.1c1.8-0.8,3.4-1.8,4.7-3.2s2.3-3,3.1-4.8
			c0.7-1.9,1.1-3.9,1.1-6.1C245.1,141.6,244.7,139.6,244,137.8z M238.7,148.2c-0.4,1.3-1.1,2.4-1.9,3.3c-0.8,0.9-1.8,1.6-2.9,2.1
			c-1.2,0.5-2.5,0.7-3.9,0.7c-1.5,0-2.8-0.2-3.9-0.7c-1.2-0.5-2.2-1.2-3-2.1s-1.4-2-1.9-3.3s-0.7-2.8-0.7-4.4c0-1.6,0.2-3.1,0.7-4.4
			s1.1-2.4,1.9-3.3c0.8-0.9,1.8-1.6,3-2.1c1.2-0.5,2.5-0.7,3.9-0.7s2.8,0.2,3.9,0.7s2.1,1.2,2.9,2.1c0.8,0.9,1.4,2,1.9,3.3
			c0.4,1.3,0.6,2.8,0.6,4.4C239.4,145.4,239.2,146.9,238.7,148.2z"/>
	</g>
</g>
<g>
	<g>
		<polygon class="st1" points="205,129 205,141.7 191,141.7 191,129 185.5,129 185.5,158.7 191,158.7 191,145.7 205,145.7 
			205,158.7 210.6,158.7 210.6,129 		"/>
	</g>
</g>
<g>
	<g>
		<polygon class="st1" points="301.3,154.1 301.3,129 295.8,129 295.8,158.7 313.2,158.7 313.2,154.1 		"/>
	</g>
</g>
<g>
	<g>
		<polygon class="st1" points="245.3,129 245.3,133.5 254.3,133.5 254.3,158.7 259.8,158.7 259.8,133.5 268.7,133.5 268.7,129 		"/>
	</g>
</g>
<g>
	<g>
		<polygon class="st1" points="291,133.3 291,129 272.3,129 272.3,158.7 291,158.7 291,154.2 277.8,154.2 277.8,145.8 288.2,145.8 
			288.2,141.6 277.8,141.6 277.8,133.3 		"/>
	</g>
</g>
</svg>
