<?xml version="1.0" encoding="utf-8"?>
<!-- Generator: Adobe Illustrator 22.0.1, SVG Export Plug-In . SVG Version: 6.00 Build 0)  -->
<svg version="1.1" id="Слой_1" xmlns="http://www.w3.org/2000/svg" xmlns:xlink="http://www.w3.org/1999/xlink" x="0px" y="0px"
	 viewBox="0 0 500 500" style="enable-background:new 0 0 500 500;" xml:space="preserve">
<style type="text/css">
	.st0{fill:#00ACE5;}
	.st1{fill:#F9F9F9;}
</style>
<g>
	<circle class="st0" cx="250" cy="250" r="250"/>
</g>
<g>
	<path class="st1" d="M325.3,200.6h-38.4c-3.6,0-6.4,2.9-6.4,6.4s2.9,6.4,6.4,6.4h38.4c3.6,0,6.4-2.9,6.4-6.4
		S328.9,200.6,325.3,200.6z"/>
	<path class="st1" d="M325.3,226.6h-38.4c-3.6,0-6.4,2.9-6.4,6.4s2.9,6.4,6.4,6.4h38.4c3.6,0,6.4-2.9,6.4-6.4
		S328.9,226.6,325.3,226.6z"/>
	<path class="st1" d="M325.3,252.1h-38.4c-3.6,0-6.4,2.9-6.4,6.4s2.9,6.4,6.4,6.4h38.4c3.6,0,6.4-2.9,6.4-6.4
		S328.9,252.1,325.3,252.1z"/>
	<path class="st1" d="M389.5,187.7h-37.7c-0.3,0-0.6,0-1,0c-3.3,0.3-5.9,3.1-5.9,6.4v96.5c0,3.4,2.6,6.2,6,6.4c0.3,0,0.6,0,0.9,0
		h37.7c7.1,0,12.9-5.8,12.9-12.9v-83.7C402.4,193.5,396.6,187.7,389.5,187.7z M389.5,284.2C389.5,284.2,389.5,284.3,389.5,284.2
		l-31.8,0.1v-83.7l31.7,0c0,0,0.1,0.1,0.1,0V284.2z"/>
	<path class="st1" d="M389.5,149.1H183.8h-13.1c-10.4,0-19.7,5-25.5,12.6h-42.4c-14.2,0-25.7,11.5-25.7,25.7v0.2H64.9
		c-3.6,0-6.4,2.9-6.4,6.4c0,3.6,2.9,6.4,6.4,6.4H77v0.2c0,14.2,11.5,25.7,25.7,25.7h42.4c5.9,7.7,15.1,12.6,25.5,12.6h13.1h12.7v14
		c-7.5,2.6-13,9.8-13,18.2v109.6c0,10.6,8.7,19.3,19.3,19.3h0.2c10.6,0,19.3-8.7,19.3-19.3V271.5c0-8.4-5.4-15.6-13-18.2v-14h25.6
		c10.7,0,19.4,8.7,19.4,19.4v83.6c0,17.7,14.4,32.2,32.2,32.2h39.1c17.7,0,32.2-14.4,32.2-32.2v-6.4h31.8
		c28.4,0,51.5-23.1,51.5-51.5v-83.7C441,172.2,417.9,149.1,389.5,149.1z M209.5,381.1c0,3.5-2.9,6.4-6.4,6.4h-0.2
		c-3.5,0-6.4-2.9-6.4-6.4V271.5c0-3.5,2.9-6.4,6.4-6.4h0.2c3.5,0,6.4,2.9,6.4,6.4V381.1z M102.8,213.7c-7.1,0-12.9-5.8-12.9-12.9
		v-13.3c0-7.1,5.8-12.9,12.9-12.9h36.5c-0.5,2.2-0.7,4.4-0.7,6.7V207c0,2.3,0.2,4.5,0.7,6.7H102.8z M428.1,284.3
		c0,21.3-17.3,38.6-38.6,38.6l-37.8,0c-0.1,0-0.2,0-0.4,0c0,0,0,0-0.1,0c-1.7,0-3.3,0.7-4.5,1.9c-1.2,1.2-1.9,2.9-1.9,4.6v12.9
		c0,10.6-8.7,19.3-19.3,19.3h-39.1c-10.6,0-19.3-8.7-19.3-19.3v-83.6c0-17.8-14.5-32.3-32.3-32.3h-44.7v-32.2c0-3.6-2.9-6.4-6.4-6.4
		s-6.4,2.9-6.4,6.4v32.2h-6.6c-10.6,0-19.3-8.7-19.3-19.3v-25.7c0-10.6,8.7-19.3,19.3-19.3h6.6v6.4c0,3.6,2.9,6.4,6.4,6.4
		s6.4-2.9,6.4-6.4V162h199.3c21.3,0,38.6,17.3,38.6,38.6L428.1,284.3L428.1,284.3z"/>
</g>
</svg>
