<?xml version="1.0" encoding="utf-8"?>
<!-- Generator: Adobe Illustrator 22.0.1, SVG Export Plug-In . SVG Version: 6.00 Build 0)  -->
<svg version="1.1" id="Слой_1" xmlns="http://www.w3.org/2000/svg" xmlns:xlink="http://www.w3.org/1999/xlink" x="0px" y="0px"
	 viewBox="0 0 500 500" style="enable-background:new 0 0 500 500;" xml:space="preserve">
<style type="text/css">
	.st0{fill:#00ACE5;}
	.st1{fill:#F9F9F9;}
</style>
<g>
	<circle class="st0" cx="250" cy="250" r="250"/>
</g>
<path class="st1" d="M366.3,139.1H211c-0.5-1.1-1.3-2-2.3-2.7c-1.8-1.2-3.9-1.5-5.9-0.7c-2.7,0.7-5.4,0.7-8-0.3
	c-4.3-1.5-9-1.8-13.6-1c1.1-4.5,1.6-9,1.6-13.6c0-3.8-3-6.8-6.8-6.8s-6.8,3-6.8,6.8c0,6.4-1.4,12.8-4.1,18.7
	c-1.4-0.2-2.8-0.4-4.3-0.4h-32.5c-1.6,0-3.2,0.1-4.8,0.4c-2.7-5.9-4.2-12.3-4.2-18.8c0-3.8-3-6.8-6.8-6.8s-6.8,3-6.8,6.8
	c0,4.6,0.6,9.2,1.6,13.7c-4.8-0.9-9.5-0.6-13.9,1c-2.7,0.9-5.4,1-8,0.3c-2-0.7-4.1-0.4-5.9,0.7c-1.8,1.2-2.8,3.2-2.9,5.3
	c-1.4,22.9,13.8,32.5,27.3,33.8l14.1,39.9c0.2,0.4,0.3,0.8,0.6,1.2c-0.6,2-1,4-1,6.2c0,6.3,2.8,11.9,7.2,15.6
	c-0.2,0.7-0.4,1.4-0.4,2.2v17.5c0,10.1,3.5,19.4,9.3,26.8v81.5c0,11.2,9.1,20.4,20.4,20.4c5.2,0,10-2,13.6-5.2
	c3.6,3.2,8.4,5.2,13.6,5.2c11.2,0,20.4-9.1,20.4-20.4v-65.1h127.4v65.1c0,11.2,9.1,20.4,20.4,20.4c5.2,0,10-2,13.6-5.2
	c3.6,3.2,8.4,5.2,13.6,5.2c11.2,0,20.4-9.1,20.4-20.4v-164c0-1.1-0.3-2.1-0.7-3.1c-2.8-19.2-13.3-35.8-28.2-46.8
	c23.6,1,42.6,20.6,42.6,44.4v66.2c0,3.7,3,6.8,6.8,6.8c3.8,0,6.8-3,6.8-6.8v-66.2C424.3,165.2,398.3,139.1,366.3,139.1z
	 M116.1,168.7c-0.1-0.3-0.2-0.7-0.2-1.1c-0.6-3.2-3.4-5.6-6.7-5.6h-3.7c-5.1-0.5-12.7-2.9-14.7-12.4c2.5-0.1,4.9-0.6,7.3-1.4
	c3.4-1.2,7.2-0.9,11.3,0.9c1,0.7,2.8,2,5.9,4.4c2.1,1.6,4.9,1.8,7.3,0.6c1.8-0.9,3.8-1.4,5.9-1.4h32.5c2,0,3.8,0.4,5.6,1.3
	c2.3,1.1,5,0.8,7.1-0.7c2.9-2.2,4.7-3.5,5.6-4.1c4.1-1.7,7.9-2,11.3-0.9c1.6,0.5,3.1,0.9,4.7,1.2c0.5,0.9,1.2,1.6,2.1,2.2
	c-2.5,8-9.5,10-14.2,10.5h-2.9c-3.3,0-6.1,2.3-6.7,5.6c-0.1,0.4-0.1,0.7-0.2,1.1l-12.8,36.1c-2.9-1.5-6.1-2.4-9.6-2.4h-12.5
	c-3.5,0-6.7,0.9-9.6,2.4L116.1,168.7z M131.4,223c0-3.8,3.1-7,7-7h12.5c3.8,0,7,3.1,7,7c0,3.8-3.1,7-7,7h-12.5
	C134.5,229.9,131.4,226.8,131.4,223z M154.4,373.4c-3.7,0-6.8-3-6.8-6.8v-70.2c4.2,2.2,8.7,3.8,13.5,4.6v65.6c0,0.2,0,0.3,0,0.5
	C160.9,370.6,158,373.4,154.4,373.4z M195.1,271.5c-3.8,0-6.8,3-6.8,6.8v88.4c0,3.7-3,6.8-6.8,6.8c-3.6,0-6.5-2.8-6.8-6.3
	c0-0.2,0-0.3,0-0.5c0-0.2,0-0.5,0-0.7v-71.2c0-3.8-3-6.8-6.8-6.8c-16.4,0-29.7-13.3-29.7-29.7v-14.8c0,0,0.1,0,0.1,0h12.5
	c7,0,13.2-3.5,16.9-8.8c0.1,0,0.2,0,0.3,0h24.2c4.3,0,7.7,3.5,7.7,7.7c0,11.7,9.6,21.3,21.3,21.3h3.7c4.3,0,7.7,3.5,7.7,7.7V288
	h-30.7v-9.7C201.9,274.5,198.9,271.5,195.1,271.5z M349.6,373.4c-3.7,0-6.8-3-6.8-6.8v-54.9c4.2,2.2,8.7,3.6,13.6,4.3v50.6
	C356.4,370.4,353.4,373.4,349.6,373.4z M383.6,366.6c0,3.7-3,6.8-6.8,6.8c-3.7,0-6.8-3-6.8-6.8v-57.1c0-3.8-3-6.8-6.8-6.8h-1.1
	c-15.7,0-28.6-12.8-28.6-28.6c0-3.8-3-6.8-6.8-6.8c-3.8,0-6.8,3-6.8,6.8c0,4.8,0.8,9.4,2.3,13.8h-76.1v-16.5
	c0-11.7-9.6-21.3-21.3-21.3h-3.7c-4.3,0-7.7-3.5-7.7-7.7c0-11.7-9.6-21.3-21.3-21.3h-20.9c-0.1-1.5-0.4-3-0.9-4.4
	c0.2-0.4,0.4-0.8,0.6-1.2l14.2-40c10.9-1.3,22.7-8.1,25.8-22.8h21.6v1.4c0,22.9,18.6,41.6,41.6,41.6c4.3,0,7.8,3.5,7.8,7.8v1
	c0,19.8,16.1,36,36,36c19.8,0,36-16.1,36-36c0-4.3,3.5-7.8,7.8-7.8h20.4c1,4.2,1.5,8.5,1.5,13V366.6z M377,183.2h-15.3
	c-11.8,0-21.4,9.6-21.4,21.4c0,12.4-10.1,22.4-22.4,22.4c-12.4,0-22.4-10.1-22.4-22.4v-1c0-11.8-9.6-21.4-21.4-21.4
	c-15.4,0-28-12.5-28-28v-1.4h80.4C348.4,152.7,367.4,165.1,377,183.2z"/>
</svg>
