<?xml version="1.0" encoding="utf-8"?>
<!-- Generator: Adobe Illustrator 22.0.1, SVG Export Plug-In . SVG Version: 6.00 Build 0)  -->
<svg version="1.1" id="Слой_1" xmlns="http://www.w3.org/2000/svg" xmlns:xlink="http://www.w3.org/1999/xlink" x="0px" y="0px"
	 viewBox="0 0 500 500" style="enable-background:new 0 0 500 500;" xml:space="preserve">
<style type="text/css">
	.st0{fill:#00ACE5;}
	.st1{fill:#F9F9F9;}
</style>
<g>
	<circle class="st0" cx="250" cy="250" r="250"/>
</g>
<path class="st1" d="M289.2,347.5H289c-2,0-3.6,1.6-3.6,3.6s1.6,3.6,3.6,3.6h0.2c2,0,3.6-1.6,3.6-3.6S291.1,347.5,289.2,347.5z"/>
<path class="st1" d="M303.5,347.5h-0.2c-2,0-3.6,1.6-3.6,3.6s1.6,3.6,3.6,3.6h0.2c2,0,3.6-1.6,3.6-3.6S305.5,347.5,303.5,347.5z"/>
<path class="st1" d="M328.9,217.3c0-9.8-1.8-19.4-5.5-28.4c-0.7-1.8-2.8-2.7-4.6-2c-1.8,0.7-2.7,2.8-2,4.6
	c3.3,8.2,4.9,16.9,4.9,25.8c0,38.1-31,69.2-69.1,69.2s-69.1-31-69.1-69.2s31-69.2,69.1-69.2c22.1,0,43.1,10.7,56.1,28.8
	c1.2,1.6,3.4,2,5,0.8c1.6-1.2,2-3.4,0.8-5c-14.3-19.9-37.4-31.7-61.9-31.7c-42,0-76.2,34.2-76.2,76.3s34.2,76.3,76.2,76.3
	S328.9,259.3,328.9,217.3z"/>
<path class="st1" d="M211.2,261.9c2.4,1.4,5.5,2.4,9.1,2.4c5.5,0,12.2-2.5,19.9-10.1c4.7-4.7,8.5-10.1,11.2-16.2c0.4,0,0.9,0,1.3,0
	c3.7,0,7.2-1,10.2-2.8c1.5,2.7,2.8,5.5,3.7,8.3c0.8,2.3,1.2,4.9,1.6,7.3c0.9,5.2,1.8,10.5,6.1,13.2c1.6,1,3.5,1.5,5.7,1.5
	c2,0,4.2-0.4,6.8-1.2h0c9.9-3,24.8-18.5,24.5-32.9c-0.2-7.1-4-16.5-21.3-21c-6.4-1.7-13-2.1-19.6-1.4c-1.5-3-3.8-5.6-6.6-7.5
	c1.8-2.5,3.8-4.8,6-6.9c1.8-1.7,3.9-3.2,5.9-4.6c4.3-3,8.8-6.1,9.3-11.2c0.4-3.6-1.2-7.2-5-11.5l0,0c-6.9-7.7-27.3-14.7-40.1-8.4
	c-6.4,3.1-13.3,10.6-10,28.3c1.2,6.5,3.6,12.7,7,18.4c-2.7,3.4-4.2,7.7-4.2,12.3c0,0,0,0,0,0c-3.1-0.1-6.1-0.4-9-1.1
	c-2.4-0.5-4.8-1.4-7.1-2.3c-4.9-1.9-10-3.8-14.5-1.4c-3.2,1.7-5.3,5.1-6.6,10.6C193,234.1,198.7,254.9,211.2,261.9z M272.5,218.2
	c0-0.7,0-1.4-0.1-2.1c0,0,0,0,0,0c5.3-0.4,10.6,0,15.8,1.4c10.5,2.7,15.9,7.5,16,14.3c0.2,10.5-12,23.6-19.5,25.9
	c-3.2,1-5.6,1.1-6.7,0.4c-1.6-1-2.2-4.5-2.8-8.3c-0.4-2.6-0.9-5.5-1.9-8.3c-1.2-3.8-2.9-7.4-5-10.9c0,0,0,0,0,0
	C270.9,227.1,272.5,222.8,272.5,218.2z M265.4,218.2c0,7.1-5.7,12.8-12.8,12.8c-7.1,0-12.8-5.8-12.8-12.8c0-7.1,5.7-12.8,12.8-12.8
	C259.7,205.4,265.4,211.1,265.4,218.2z M243.1,165.6c2.5-1.2,5.4-1.7,8.5-1.7c8.9,0,19.2,4.2,23.1,8.5c2.2,2.5,3.4,4.6,3.2,5.9
	c-0.2,1.9-3.2,3.9-6.3,6.1c-2.1,1.5-4.6,3.2-6.7,5.2c-2.9,2.7-5.5,5.8-7.7,9.1c0,0-0.1,0-0.1,0c-1.4-0.3-2.9-0.5-4.4-0.5
	c-3.7,0-7.2,1-10.2,2.8c0,0,0,0,0,0c-2.6-4.6-4.5-9.6-5.4-14.9C235,175.5,237,168.6,243.1,165.6z M202.4,225.7L202.4,225.7
	c0.8-3.2,1.9-5.4,3-6c0.4-0.2,0.8-0.3,1.3-0.3c1.8,0,4.5,1,7.2,2.1c2.4,0.9,5.2,2,8.1,2.6c3.9,0.8,7.9,1.3,11.9,1.2c0,0,0,0,0,0
	c1.9,4.8,5.6,8.8,10.2,10.9c0,0,0,0,0,0c-2.3,4.8-5.4,9.1-9.2,12.9c-7.7,7.6-14.5,9.8-20.4,6.5C205.5,250.6,200.5,233.4,202.4,225.7
	z"/>
<path class="st1" d="M256.3,208.7c-1.2-0.5-2.4-0.7-3.7-0.7c-2.5,0-4.9,1-6.8,2.7c-2,1.9-3.1,4.5-3.1,7.2c0,0.7,0.1,1.4,0.2,2.1
	c0.8,3.8,3.8,6.7,7.5,7.5c0.7,0.2,1.4,0.2,2.1,0.2c2.5,0,4.9-0.9,6.7-2.7c2-1.9,3.1-4.5,3.1-7.2c0-1.1-0.2-2.1-0.5-3.1
	C261.1,212,259,209.8,256.3,208.7z M254.5,219.8c-0.5,0.5-1.2,0.7-1.9,0.7c-0.2,0-0.4,0-0.6-0.1c-1-0.2-1.8-1-2-2.1
	c0-0.2-0.1-0.4-0.1-0.6c0-0.8,0.3-1.5,0.8-2c0.4-0.3,1-0.7,1.9-0.7c0.4,0,0.7,0.1,1,0.2c0.7,0.3,1.3,0.9,1.6,1.7c0,0,0,0,0,0.1
	c0.1,0.2,0.1,0.5,0.1,0.8C255.4,218.6,255.1,219.3,254.5,219.8z"/>
<path class="st1" d="M307.8,330.3h-21.6l-7.2-27.9c36.3-11.3,62.7-45.2,62.7-85.1c0-49.1-39.9-89.1-89-89.1c-49.1,0-89,40-89,89.1
	c0,40,26.4,73.9,62.7,85.1l-7.2,27.9h-21.6c-8.3,0-15.1,6.8-15.1,15.1v11.4c0,8.3,6.8,15.1,15.1,15.1h110.2
	c8.3,0,15.1-6.8,15.1-15.1v-11.4C322.9,337.1,316.1,330.3,307.8,330.3z M170.8,217.3c0-45.2,36.7-82,81.9-82
	c45.1,0,81.9,36.8,81.9,82c0,45.2-36.7,82-81.9,82C207.5,299.2,170.8,262.5,170.8,217.3z M278.8,330.3h-52.3l6.8-26.1
	c6.2,1.4,12.7,2.1,19.4,2.1c6.7,0,13.1-0.7,19.4-2.1L278.8,330.3z M315.7,356.7c0,4.4-3.6,8-7.9,8H197.6c-4.4,0-7.9-3.6-7.9-8v-11.4
	c0-4.4,3.6-8,7.9-8h24.4h0h0h7.5v5.5c0,2,1.6,3.6,3.6,3.6s3.6-1.6,3.6-3.6v-5.5h10.9v5.5c0,2,1.6,3.6,3.6,3.6c2,0,3.6-1.6,3.6-3.6
	v-5.5h10.9v5.5c0,2,1.6,3.6,3.6,3.6c2,0,3.6-1.6,3.6-3.6v-5.5h10.8h0h0h24.4c4.4,0,7.9,3.6,7.9,8L315.7,356.7L315.7,356.7z"/>
</svg>
