<?xml version="1.0" encoding="utf-8"?>
<!-- Generator: Adobe Illustrator 22.0.1, SVG Export Plug-In . SVG Version: 6.00 Build 0)  -->
<svg version="1.1" id="Слой_1" xmlns="http://www.w3.org/2000/svg" xmlns:xlink="http://www.w3.org/1999/xlink" x="0px" y="0px"
	 viewBox="0 0 500 500" style="enable-background:new 0 0 500 500;" xml:space="preserve">
<style type="text/css">
	.st0{fill:#00ACE5;}
	.st1{fill:#F9F9F9;}
	.st2{fill:none;}
	.st3{font-family:'MyriadPro-Bold';}
	.st4{font-size:55px;}
</style>
<g>
	<circle class="st0" cx="250" cy="250" r="250"/>
</g>
<g>
	<g>
		<path class="st1" d="M407.7,381.8h-5.8V230.9c13.1-8.4,21.7-23.1,21.7-39.7c0-0.9-0.2-1.8-0.7-2.5L382.6,118c-2.8-5-8.1-8-13.9-8
			H131.3c-5.7,0-11,3.1-13.9,8l-40.4,70.6c-0.4,0.8-0.7,1.6-0.7,2.5c0,16.7,8.7,31.3,21.7,39.7v150.9h-5.8c-2.8,0-5.1,2.3-5.1,5.1
			s2.3,5.1,5.1,5.1h315.3c2.8,0,5.1-2.3,5.1-5.1C412.7,384.1,410.5,381.8,407.7,381.8z M86.9,196.3h16.3c2.8,0,5.1-2.3,5.1-5.1
			c0-2.8-2.3-5.1-5.1-5.1h-13l36-63c1-1.8,3-2.9,5-2.9h237.5c2.1,0,4,1.1,5,2.9l36,63h-13c-2.8,0-5.1,2.3-5.1,5.1
			c0,2.8,2.3,5.1,5.1,5.1h16.3c-2.5,18-18,32-36.7,32c-18.7,0-34.2-13.9-36.7-32H375c2.8,0,5.1-2.3,5.1-5.1c0-2.8-2.3-5.1-5.1-5.1
			H125c-2.8,0-5.1,2.3-5.1,5.1c0,2.8,2.3,5.1,5.1,5.1h35.3c-2.5,18-18,32-36.7,32C104.9,228.2,89.4,214.3,86.9,196.3z M328.8,196.3
			c-2.5,18-18,32-36.7,32c-18.7,0-34.2-13.9-36.7-32H328.8z M244.6,196.3c-2.5,18-18,32-36.7,32s-34.2-13.9-36.7-32H244.6z
			 M364.5,381.8h-55.1v-17h55.1V381.8z M364.5,354.6h-55.1v-93.1h55.1V354.6z M391.7,381.8h-17V256.4c0-2.8-2.3-5.1-5.1-5.1h-65.2
			c-2.8,0-5.1,2.3-5.1,5.1v125.4h-191v-146c4.8,1.7,9.9,2.6,15.3,2.6c18.4,0,34.3-10.6,42.1-25.9c7.8,15.4,23.8,25.9,42.1,25.9
			s34.3-10.6,42.1-25.9c7.8,15.4,23.8,25.9,42.1,25.9c18.4,0,34.3-10.6,42.1-25.9c7.8,15.4,23.8,25.9,42.1,25.9
			c5.4,0,10.5-0.9,15.3-2.6V381.8z"/>
	</g>
</g>
<rect x="128" y="261.5" class="st2" width="141" height="56"/>
<text transform="matrix(1 0 0 1 128 300.5498)" class="st1 st3 st4">SHOP</text>
</svg>
