<?xml version="1.0" encoding="utf-8"?>
<!-- Generator: Adobe Illustrator 22.0.1, SVG Export Plug-In . SVG Version: 6.00 Build 0)  -->
<svg version="1.1" id="Слой_1" xmlns="http://www.w3.org/2000/svg" xmlns:xlink="http://www.w3.org/1999/xlink" x="0px" y="0px"
	 viewBox="0 0 500 500" style="enable-background:new 0 0 500 500;" xml:space="preserve">
<style type="text/css">
	.st0{fill:#00ACE5;}
	.st1{fill:#F9F9F9;}
</style>
<g>
	<circle class="st0" cx="250" cy="250" r="250"/>
</g>
<path class="st1" d="M381.9,195.2h-10.2c-0.1-0.1-0.2-0.2-0.4-0.3l-33.9-24.5c-0.7-0.5-1.5-0.7-2.3-0.7H299l-10.8-7.3
	c-4.2-2.8-8.6,3.6-4.4,6.5l38.8,26.4H182.9l69.5-46.9c0.1,0,0.3,0,0.4,0c0.1,0,0.2,0,0.3,0l13.6,8.9c4.2,2.8,8.5-3.8,4.3-6.5
	l-14.3-9.4v-9c0.7,0.1,1.4,0.1,2.1,0.1c6.4,0,14.5-5.5,20.5-2.1c2.5,1.5,5.9-0.4,5.9-3.4v-15.2c0-1.4-0.7-2.7-2-3.4
	c-4.4-2.6-9.3-2.4-14.2-1.2c-3.9,0.9-8.2,3.1-12.3,2c-0.3-5-7.8-5.2-7.8-0.1v32l-42.2,28.5h-36.6c-0.8,0-1.6,0.3-2.3,0.7L134,194.8
	c-0.1,0.1-0.3,0.2-0.4,0.3H123c-2.2,0-3.9,1.8-3.9,3.9v22.4c0,2.2,1.8,3.9,3.9,3.9h2.2V327c0,5,7.8,5,7.8,0V225.3h47.8v18
	c0,2.2,1.8,3.9,3.9,3.9h8.6v105.5h-8.6c-2.2,0-3.9,1.8-3.9,3.9v10.2H133v-21.1c0-5-7.8-5-7.8,0v25c0,2.2,1.7,3.9,3.9,3.9h247.3
	c6,0,3.9-13.1,3.9-16.6c0-11.8,0-124.2,0-128.5c0-1.6-1-5,1.7-4.2c2.2,0,3.9-1.8,3.9-3.9v-22.4C385.8,196.9,384.1,195.2,381.9,195.2
	z M256.7,117.1c4.1,0.5,8-0.6,11.4-1.6c3.9-1.1,6.7-1.8,9.2-1.2v7.2c-4.1-0.5-8,0.6-11.4,1.6c-3.9,1.1-6.7,1.8-9.2,1.2V117.1z
	 M310.5,177.4H334l24.5,17.7h-22L310.5,177.4z M171.4,177.4h23.7l-26.3,17.7h-22L171.4,177.4z M220.9,366.8h-32.3v-6.3h32.3V366.8z
	 M201.1,352.7V248.3h7.8v104.4H201.1z M261.6,365.5h-17.7v-45.5c0-2.6,1.1-5,3.1-6.7c3.3-2.9,8.2-2.9,11.5,0c2,1.7,3.1,4.1,3.1,6.7
	L261.6,365.5L261.6,365.5z M276.7,356.6v10.2h-7.3v-46.7c0-4.9-2.1-9.5-5.8-12.7c-6.3-5.4-15.4-5.4-21.7,0
	c-3.7,3.2-5.8,7.8-5.8,12.7v46.7h-7.3v-10.2c0-2.2-1.8-3.9-3.9-3.9h-8.1V247.3h44.8c5,0,5-7.8,0-7.8h-73v-14.1h128.2v14.1h-34.4
	c-5,0-5,7.8,0,7.8h6.8v105.5h-8.6C278.4,352.7,276.7,354.5,276.7,356.6z M304.8,248.3v104.4H297V248.3H304.8z M316.8,366.8h-32.3
	v-6.3h32.3V366.8z M372.4,366.8h-47.8v-10.2c0-2.2-1.7-3.9-3.9-3.9h-8.1V247.3h8.1c2.2,0,3.9-1.8,3.9-3.9v-18h47.8V366.8z
	 M378,217.5H126.9V203H378V217.5z"/>
<path class="st1" d="M252.7,258.7c-8.5,0-15.4,6.9-15.4,15.4c0,8.5,6.9,15.4,15.4,15.4c8.5,0,15.4-6.9,15.4-15.4
	C268.1,265.6,261.2,258.7,252.7,258.7z M252.7,281.6c-4.2,0-7.6-3.4-7.6-7.6s3.4-7.6,7.6-7.6c4.2,0,7.6,3.4,7.6,7.6
	S256.9,281.6,252.7,281.6z"/>
<path class="st1" d="M335.3,290.5h14.2c2.2,0,3.9-1.8,3.9-3.9v-28.5c0-6.1-4.9-11-11-11c-6.1,0-11,4.9-11,11v28.5
	C331.3,288.7,333.1,290.5,335.3,290.5z M339.2,258.1c0-1.7,1.4-3.2,3.2-3.2s3.2,1.4,3.2,3.2v24.6h-6.3V258.1z"/>
<path class="st1" d="M335.3,347.3h14.2c2.2,0,3.9-1.8,3.9-3.9v-28.5c0-6.1-4.9-11-11-11c-6.1,0-11,4.9-11,11v28.5
	C331.3,345.5,333.1,347.3,335.3,347.3z M339.2,314.9c0-1.7,1.4-3.2,3.2-3.2s3.2,1.4,3.2,3.2v24.6h-6.3V314.9z"/>
<path class="st1" d="M169.1,290.5c2.2,0,3.9-1.8,3.9-3.9v-28.5c0-6.1-4.9-11-11-11c-6.1,0-11,4.9-11,11v28.5c0,2.2,1.7,3.9,3.9,3.9
	H169.1z M158.9,258.1c0-1.7,1.4-3.2,3.2-3.2c1.7,0,3.2,1.4,3.2,3.2v24.6h-6.3V258.1z"/>
<path class="st1" d="M151.1,343.4c0,2.2,1.8,3.9,3.9,3.9h14.2c2.2,0,3.9-1.8,3.9-3.9v-28.5c0-6.1-4.9-11-11-11c-6.1,0-11,4.9-11,11
	V343.4z M158.9,314.9c0-1.7,1.4-3.2,3.2-3.2c1.7,0,3.2,1.4,3.2,3.2v24.6h-6.3V314.9z"/>
</svg>
