<?xml version="1.0" encoding="utf-8"?>
<!-- Generator: Adobe Illustrator 22.0.1, SVG Export Plug-In . SVG Version: 6.00 Build 0)  -->
<svg version="1.1" id="Слой_1" xmlns="http://www.w3.org/2000/svg" xmlns:xlink="http://www.w3.org/1999/xlink" x="0px" y="0px"
	 viewBox="0 0 500 500" style="enable-background:new 0 0 500 500;" xml:space="preserve">
<style type="text/css">
	.st0{fill:#00ACE5;}
	.st1{fill:#F9F9F9;}
</style>
<g>
	<circle class="st0" cx="250" cy="250" r="250"/>
</g>
<g id="surface1">
	<path class="st1" d="M366.8,327.6v-52.8c0-2.6-2.1-4.8-4.8-4.8h-57.2c-2.6,0-4.8,2.1-4.8,4.8v52.4h-14.3v-52.4
		c0-2.6-2.1-4.8-4.8-4.8h-57.2c-2.6,0-4.8,2.1-4.8,4.8v52.4h-14.3v-52.4c0-2.6-2.1-4.8-4.8-4.8h-57.2c-2.6,0-4.8,2.1-4.8,4.8v52.8
		c-18.2,2.8-30.7,19.8-28,38c2.5,16.2,16.3,28.2,32.7,28.3h219.3c18.4-0.1,33.2-15.2,33.1-33.6C395,344,383,330.1,366.8,327.6z
		 M309.6,279.6h47.7v47.7h-47.7V279.6z M228.6,279.6h47.7v47.7h-47.7V279.6z M147.6,279.6h47.7v47.7h-47.7V279.6z M362.1,384.5
		H142.8c-13.2,0-23.8-10.7-23.8-23.8c0-13.2,10.7-23.8,23.8-23.8h219.3c13.2,0,23.8,10.7,23.8,23.8
		C385.9,373.8,375.2,384.5,362.1,384.5z"/>
	<path class="st1" d="M228.6,341.6c-10.5,0-19.1,8.5-19.1,19.1s8.5,19.1,19.1,19.1c10.5,0,19.1-8.5,19.1-19.1
		S239.1,341.6,228.6,341.6z M228.6,370.2c-5.3,0-9.5-4.3-9.5-9.5s4.3-9.5,9.5-9.5c5.3,0,9.5,4.3,9.5,9.5S233.9,370.2,228.6,370.2z"
		/>
	<path class="st1" d="M276.3,341.6c-10.5,0-19.1,8.5-19.1,19.1s8.5,19.1,19.1,19.1c10.5,0,19.1-8.5,19.1-19.1
		S286.8,341.6,276.3,341.6z M276.3,370.2c-5.3,0-9.5-4.3-9.5-9.5s4.3-9.5,9.5-9.5s9.5,4.3,9.5,9.5S281.5,370.2,276.3,370.2z"/>
	<path class="st1" d="M319.2,341.6c-10.5,0-19.1,8.5-19.1,19.1s8.5,19.1,19.1,19.1c10.5,0,19.1-8.5,19.1-19.1
		S329.7,341.6,319.2,341.6z M319.2,370.2c-5.3,0-9.5-4.3-9.5-9.5s4.3-9.5,9.5-9.5c5.3,0,9.5,4.3,9.5,9.5S324.4,370.2,319.2,370.2z"
		/>
	<path class="st1" d="M362.1,341.6c-10.5,0-19.1,8.5-19.1,19.1s8.5,19.1,19.1,19.1c10.5,0,19.1-8.5,19.1-19.1
		S372.6,341.6,362.1,341.6z M362.1,370.2c-5.3,0-9.5-4.3-9.5-9.5s4.3-9.5,9.5-9.5c5.3,0,9.5,4.3,9.5,9.5S367.3,370.2,362.1,370.2z"
		/>
	<path class="st1" d="M185.7,341.6c-10.5,0-19.1,8.5-19.1,19.1s8.5,19.1,19.1,19.1c10.5,0,19.1-8.5,19.1-19.1
		S196.2,341.6,185.7,341.6z M185.7,370.2c-5.3,0-9.5-4.3-9.5-9.5s4.3-9.5,9.5-9.5c5.3,0,9.5,4.3,9.5,9.5S191,370.2,185.7,370.2z"/>
	<path class="st1" d="M142.8,341.6c-10.5,0-19.1,8.5-19.1,19.1s8.5,19.1,19.1,19.1c10.5,0,19.1-8.5,19.1-19.1
		S153.3,341.6,142.8,341.6z M142.8,370.2c-5.3,0-9.5-4.3-9.5-9.5s4.3-9.5,9.5-9.5c5.3,0,9.5,4.3,9.5,9.5S148.1,370.2,142.8,370.2z"
		/>
	<path class="st1" d="M176.2,198.6c12.9,0,24.6-7.4,30-19.1H321c2.2,2,4.8,3.4,7.7,4.1v39.3c-11.1,2.3-19.1,12-19.1,23.4
		c0,2.6,2.1,4.8,4.8,4.8c2.6,0,4.8-2.1,4.8-4.8c0-7.9,6.4-14.3,14.3-14.3c7.9,0,14.3,6.4,14.3,14.3c0,2.6,2.1,4.8,4.8,4.8
		c2.6,0,4.8-2.1,4.8-4.8c0-11.3-8-21.1-19.1-23.4v-39.3c10.2-2.6,16.3-13,13.7-23.2c-2.2-8.4-9.8-14.3-18.5-14.3
		c-4.6,0-9,1.7-12.5,4.8H206.2c-1.6-3.3-3.7-6.4-6.3-9c0-0.2,0.1-0.4,0.1-0.5v-28.6c0-2.6-2.1-4.8-4.8-4.8h-38.1
		c-2.6,0-4.8,2.1-4.8,4.8v28.6c0,0.2,0.1,0.3,0.1,0.5c-12.9,13.1-12.8,34.2,0.2,47.1C158.9,195.1,167.4,198.6,176.2,198.6z
		 M343,165.2c0,5.3-4.3,9.5-9.5,9.5c-2.7,0-5.3-1.2-7.1-3.2c-3.3-3.6-3.3-9.1,0.1-12.7c1.8-2,4.4-3.2,7-3.1
		C338.7,155.7,343,159.9,343,165.2z M315,160.4c-0.1,0.3-0.1,0.6-0.2,0.9c-0.1,0.3-0.1,0.5-0.2,0.8c-0.4,2-0.4,4.1,0,6.2
		c0,0.3,0.1,0.5,0.2,0.8c0.1,0.3,0.1,0.6,0.2,0.9H209.2c0.5-3.2,0.5-6.4,0-9.5L315,160.4z M161.9,117.5h28.6V135
		c-9.1-4.3-19.5-4.3-28.6,0V117.5z M163.1,145.3c7.8-5.1,17.9-5.2,25.9-0.2c0.1,0.1,0.3,0.1,0.4,0.2c4.3,2.9,7.6,7.1,9.3,12
		c1.9,5.1,1.9,10.7,0,15.9c-4.4,12.4-18,18.9-30.4,14.6c-12.4-4.4-18.9-18-14.6-30.4C155.4,152.4,158.7,148.2,163.1,145.3
		L163.1,145.3z"/>
	<path class="st1" d="M176.2,179.5c7.9,0,14.3-6.4,14.3-14.3c0-7.9-6.4-14.3-14.3-14.3c-7.9,0-14.3,6.4-14.3,14.3
		C161.9,173.1,168.3,179.5,176.2,179.5z M176.2,160.4c2.6,0,4.8,2.1,4.8,4.8s-2.1,4.8-4.8,4.8c-2.6,0-4.8-2.1-4.8-4.8
		S173.5,160.4,176.2,160.4z"/>
</g>
</svg>
