<?xml version="1.0" encoding="utf-8"?>
<!-- Generator: Adobe Illustrator 22.0.1, SVG Export Plug-In . SVG Version: 6.00 Build 0)  -->
<svg version="1.1" id="Слой_1" xmlns="http://www.w3.org/2000/svg" xmlns:xlink="http://www.w3.org/1999/xlink" x="0px" y="0px"
	 viewBox="0 0 500 500" style="enable-background:new 0 0 500 500;" xml:space="preserve">
<style type="text/css">
	.st0{fill:#00ACE5;}
	.st1{fill:#F9F9F9;}
</style>
<g>
	<circle class="st0" cx="250" cy="250" r="250"/>
</g>
<path class="st1" d="M368,342.6h-19.9v-175c6.6,0,11.9-5.4,11.9-11.9v-19.9c0-2.2-1.8-4-4-4H149.3c-2.2,0-4,1.8-4,4v19.9
	c0,6.6,5.4,11.9,11.9,11.9v175h-19.9c-2.2,0-4,1.8-4,4v19.9c0,2.2,1.8,4,4,4H368c2.2,0,4-1.8,4-4v-19.9
	C372,344.3,370.2,342.6,368,342.6z M153.2,155.6v-15.9h198.9v15.9c0,2.2-1.8,4-4,4H157.2C155,159.6,153.2,157.8,153.2,155.6z
	 M340.2,167.5v175h-175v-175H340.2z M364.1,362.5H141.3v-11.9h222.8V362.5z"/>
<path class="st1" d="M332.2,171.5H173.1c-2.2,0-4,1.8-4,4v159.1c0,2.2,1.8,4,4,4h159.1c2.2,0,4-1.8,4-4V175.5
	C336.2,173.3,334.4,171.5,332.2,171.5z M248.7,330.6h-71.6v-75.6h71.6V330.6z M248.7,247.1h-71.6v-67.6h71.6V247.1z M328.3,330.6
	h-71.6v-75.6h71.6V330.6z M328.3,247.1h-71.6v-67.6h71.6V247.1z"/>
<path class="st1" d="M186.2,204.5l15.9-15.9l5.6,5.6l-15.9,15.9L186.2,204.5z"/>
<path class="st1" d="M186.2,224.4l35.8-35.8l5.6,5.6L191.8,230L186.2,224.4z"/>
</svg>
