<?xml version="1.0" encoding="utf-8"?>
<!-- Generator: Adobe Illustrator 22.0.1, SVG Export Plug-In . SVG Version: 6.00 Build 0)  -->
<svg version="1.1" id="Слой_1" xmlns="http://www.w3.org/2000/svg" xmlns:xlink="http://www.w3.org/1999/xlink" x="0px" y="0px"
	 viewBox="0 0 500 500" style="enable-background:new 0 0 500 500;" xml:space="preserve">
<style type="text/css">
	.st0{fill:#00ACE5;}
	.st1{fill:#F9F9F9;}
</style>
<g>
	<circle class="st0" cx="250" cy="250" r="250"/>
</g>
<path class="st1" d="M341.8,168.7c12.8-17,20.7-39.4,20.7-64h-10.6c0,45.7-29.5,82.9-66.2,84.8c-4.2-2.4-8.8-4.1-13.8-4.8
	c-2.4-18.2-18-32.2-36.8-32.2c-11.6,0-22.2,5.4-29.2,14.3c-6.8-8.7-17.4-14.3-29.2-14.3c-20.5,0-37.2,16.7-37.2,37.2
	c0,8.2,2.7,15.9,7.4,22.3c-16.4,3.9-28.7,18.6-28.7,36.2c0,11.6,5.4,22,13.8,28.9c-14.2,5.2-24.4,18.9-24.4,34.9
	c0,6.3,1.6,12.4,4.6,17.9C103,336.4,97,347.3,97,359.6c0,20.5,16.7,37.2,37.2,37.2c13.3,0,25-7,31.5-17.6c6.3,4.5,13.8,7,21.6,7
	c14.9,0,27.7-8.8,33.6-21.5c5.8,3.6,12.5,5.5,19.5,5.5c16.5,0,30.6-10.9,35.4-25.8c5.4,3,11.5,4.6,17.7,4.6
	c20.5,0,37.2-16.7,37.2-37.2c0-8.1-2.6-15.5-7-21.6c10.7-6.7,17.6-18.5,17.6-31.5c0-20.5-16.5-37.3-37.2-37.1c0,0,0,0,0,0
	c0-8.6-2.9-16.4-7.8-22.7c12.9-2.6,24.7-9,34.7-18.1c3.5,34.8,33,62.1,68.7,62.1h5.3v-5.3C405,201.4,377.2,171.7,341.8,168.7z
	 M293,226.4C293,226.4,293,226.4,293,226.4c-0.1,0.6-0.3,1.1-0.4,1.6c-0.2,0.9-0.5,1.8-0.8,2.7c-0.3,0.7-0.6,1.4-0.9,2
	c-0.3,0.6-0.6,1.3-0.9,1.9c-0.4,0.7-0.8,1.4-1.3,2c-0.4,0.5-0.7,1-1.1,1.5c-0.5,0.6-1,1.3-1.6,1.8c-0.5,0.5-1,0.9-1.4,1.3
	c-0.6,0.5-1.1,1-1.7,1.5c-1.1,0.8-2.3,1.6-3.5,2.2c-0.3,0.2-0.7,0.3-1,0.5c-1,0.5-2.1,0.9-3.2,1.3c-0.4,0.1-0.8,0.2-1.2,0.3
	c-1.3,0.4-2.6,0.7-4,0.8c-0.1-0.1-0.3-0.1-0.4-0.2c-2.6-1.5-5.3-2.6-8.2-3.5c-0.4-0.1-0.8-0.2-1.2-0.3c-1.1-0.3-2.2-0.5-3.3-0.7
	c-0.4-0.1-0.8-0.1-1.2-0.2c-1.4-0.2-2.9-0.3-4.4-0.3c0,0-0.1,0-0.1,0c-2.4-1.8-4.5-4-6.1-6.5l-0.3-0.5c-2.1-3.3-3.4-6.9-3.9-10.8
	l-0.1-0.6c-0.1-0.9-0.2-1.9-0.2-2.8c0-14.6,11.9-26.6,26.6-26.6c14.6,0,26.6,11.9,26.6,26.6C293.5,223.2,293.3,224.8,293,226.4z
	 M274.2,292.7c-0.5,0.9-1,1.7-1.6,2.5c-0.2,0.3-0.4,0.5-0.5,0.8c-0.5,0.7-1.1,1.3-1.7,1.9c-0.3,0.3-0.6,0.6-0.9,1
	c-0.5,0.5-1.1,1-1.7,1.5c-0.4,0.3-0.8,0.7-1.2,1c-0.6,0.4-1.2,0.8-1.8,1.2c-0.5,0.3-0.9,0.6-1.4,0.8c-0.1,0.1-0.3,0.1-0.4,0.2
	c-0.1-0.1-0.2-0.1-0.2-0.2c-3-2.3-6.3-4.1-9.9-5.4c-0.2-0.1-0.5-0.2-0.7-0.3c-1.7-0.6-3.4-1-5.2-1.3c-0.3-0.1-0.7-0.1-1-0.2
	c-1.8-0.3-3.6-0.5-5.5-0.5c-1.9,0-3.9,0.2-5.8,0.5c0-0.2,0-0.4,0-0.5c0.3-1.7,0.4-3.5,0.4-5.2c0-1.4-0.1-2.9-0.3-4.3
	c-0.1-0.5-0.1-1-0.2-1.4c-0.1-0.9-0.3-1.8-0.5-2.8c-0.1-0.5-0.3-1.1-0.4-1.6c-0.2-0.9-0.5-1.8-0.9-2.6c-0.2-0.4-0.3-0.9-0.5-1.3
	c-0.5-1.3-1.1-2.6-1.8-3.8c0,0,0,0,0,0c0.3-0.2,0.5-0.5,0.8-0.7c1.2-0.9,2.3-1.8,3.3-2.8c0.3-0.3,0.5-0.5,0.7-0.8
	c1.1-1.1,2.1-2.3,3-3.5c0.2-0.2,0.3-0.4,0.5-0.7c1-1.4,1.8-2.8,2.6-4.2c0.1-0.1,0.2-0.3,0.2-0.4c0.8-1.6,1.5-3.3,2.1-5
	c0,0,0,0,0-0.1c2.4-0.7,4.9-1.1,7.3-1.1c1.6,0,3.2,0.2,4.8,0.5c0.5,0.1,0.9,0.2,1.4,0.3c1.1,0.3,2.3,0.6,3.3,1
	c0.4,0.2,0.8,0.3,1.2,0.5c1.4,0.6,2.8,1.4,4.1,2.2l0,0c1.2,0.8,2.2,1.7,3.3,2.7c1,0.9,1.9,2,2.7,3c0.3,0.3,0.6,0.6,0.8,1
	c0.9,1.2,1.6,2.6,2.3,4c0.1,0.2,0.3,0.5,0.4,0.7c0.7,1.6,1.2,3.2,1.6,4.8c0,0.1,0.1,0.2,0.1,0.3c0.4,1.7,0.5,3.4,0.6,5.2l-0.1,1.9
	c-0.2,3.8-1.3,7.5-3,10.8C274.3,292.5,274.2,292.6,274.2,292.7z M200.2,314.2c-1.1-0.4-2.3-0.8-3.4-1.1c-0.3-0.1-0.6-0.2-0.9-0.2
	c-1.1-0.3-2.2-0.5-3.3-0.6c-0.3,0-0.7-0.1-1-0.2c-1.4-0.2-2.8-0.3-4.3-0.3c-1.5,0-3.1,0.1-4.8,0.3c-0.2-0.1-0.4-0.3-0.6-0.4
	c0-1.2-0.1-2.4-0.2-3.6c-0.1-0.8-0.2-1.6-0.4-2.4c-0.1-0.4-0.1-0.7-0.2-1.1c-0.2-1-0.4-1.9-0.7-2.9c0-0.2-0.1-0.3-0.1-0.5
	c-0.3-1-0.7-2-1-3c0-0.1-0.1-0.2-0.1-0.3c-0.4-1-0.8-1.9-1.3-2.8c-0.1-0.1-0.1-0.2-0.2-0.4c-0.5-0.9-1-1.8-1.5-2.6
	c-0.1-0.2-0.2-0.3-0.3-0.5c-0.5-0.8-1.1-1.6-1.7-2.3c-0.1-0.2-0.3-0.4-0.4-0.6c-0.6-0.7-1.2-1.4-1.8-2.1c-0.1-0.1-0.2-0.3-0.4-0.4
	c0.3-1.9,0.8-3.8,1.6-5.6c1.5-0.8,2.9-1.8,4.2-2.8c0.1-0.1,0.2-0.2,0.4-0.3c2.7-2,5-4.4,7.1-7.1c0.1-0.1,0.2-0.2,0.3-0.4
	c1-1.3,1.9-2.7,2.7-4.2c0.1-0.1,0.2-0.1,0.4-0.2c1.4-0.5,2.8-1,4.2-1.3c0.2,0,0.5-0.1,0.7-0.1c1.5-0.3,3-0.4,4.6-0.4
	c1.7,0,3.3,0.2,4.9,0.5c0.2,0,0.4,0.1,0.6,0.1c1.5,0.3,3,0.8,4.4,1.4c0.2,0.1,0.5,0.2,0.7,0.3c1.4,0.6,2.7,1.3,4,2.2
	c0.2,0.1,0.4,0.3,0.6,0.4c1.1,0.8,2.2,1.7,3.2,2.6c0.2,0.2,0.4,0.3,0.5,0.5c0.9,0.9,1.7,2,2.5,3.1c0.4,0.6,0.8,1.2,1.2,1.8
	c0.5,0.8,0.9,1.6,1.3,2.4c0.3,0.6,0.5,1.1,0.8,1.7c0.4,1,0.7,2.1,1,3.1c0.1,0.5,0.3,1,0.4,1.5c0.3,1.6,0.5,3.2,0.5,4.9
	c0,1.6-0.2,3.2-0.5,4.8c-0.1,0.7-0.4,1.4-0.6,2.2c-0.3,1-0.5,2-0.9,3c-6.1,3.3-11,8.4-14.4,14.5c-1.1,0.5-2.2,0.9-3.3,1.2
	c-1.3-0.7-2.6-1.3-4-1.8C200.6,314.3,200.4,314.3,200.2,314.2z M192.6,248.1c0-1.7-0.1-3.3-0.4-4.9c0-0.4-0.1-0.7-0.2-1
	c-0.2-1.5-0.6-3-1-4.5c0-0.1,0-0.1-0.1-0.2c-0.5-1.6-1.1-3.2-1.8-4.7c-0.1-0.2-0.2-0.4-0.3-0.7c-0.6-1.3-1.3-2.6-2.1-3.9
	c-0.1-0.1-0.1-0.3-0.2-0.4c0.8-1.1,1.7-2.2,2.6-3.2c0.3-0.1,0.6-0.2,0.9-0.4c0.6-0.2,1.2-0.5,1.8-0.8c0.5-0.2,1-0.5,1.5-0.7
	c0.6-0.3,1.2-0.6,1.8-1c0.5-0.3,0.9-0.5,1.4-0.8c0.6-0.4,1.1-0.7,1.6-1.1c0.5-0.3,0.9-0.7,1.4-1c0.5-0.4,0.9-0.8,1.4-1.2
	c0.2-0.2,0.5-0.4,0.7-0.6c3.5-0.9,7-1.1,10.3-0.6c1.1,0.1,2.2,0.3,3.3,0.6c0.4,0.1,0.8,0.2,1.2,0.4c1.2,0.4,2.3,0.8,3.5,1.4
	c0.2,0.1,0.4,0.2,0.6,0.3c2.8,1.4,5.4,3.4,7.6,5.7l0.3,0.4c0.6,0.7,1.3,1.5,1.8,2.3c0.1,0.5,0.2,1,0.3,1.5c0.2,1,0.5,2,0.7,3
	c0.2,0.8,0.5,1.6,0.8,2.4c0.2,0.6,0.5,1.2,0.8,1.8c0.3,0.6,0.5,1.2,0.8,1.8c0.3,0.6,0.6,1.3,1,1.9c0.1,0.1,0.1,0.3,0.2,0.4
	c0.1,0.8,0.1,1.6,0.1,2.4c0,1.8-0.2,3.5-0.6,5.2l-0.3,1.1c-1.4,5.5-4.4,10.4-8.7,14c-0.1,0.1-0.3,0.2-0.4,0.3
	c-0.4,0.3-0.8,0.5-1.1,0.7c-0.8-0.8-1.6-1.6-2.5-2.3c-0.9-0.7-1.8-1.4-2.8-2.1c0,0,0,0-0.1,0c-3-2-6.3-3.6-9.7-4.7c0,0,0,0,0,0
	c-1-0.3-2.1-0.6-3.1-0.8c-0.2,0-0.3-0.1-0.5-0.1c-1-0.2-2-0.3-2.9-0.5c-0.3,0-0.5-0.1-0.7-0.1c-1.2-0.1-2.5-0.2-3.8-0.2
	c-1.7,0-3.5,0.2-5.1,0.4c-0.2,0-0.4,0-0.6,0c0-0.2,0-0.4,0-0.5C192.4,251.6,192.6,249.9,192.6,248.1z M211.7,177.2
	c4.6-8.6,13.6-14,23.4-14c13,0,23.8,9.4,26.1,21.7c-0.2,0-0.4,0.1-0.6,0.1c-1.6,0.3-3.3,0.6-4.8,1.1c-0.1,0-0.2,0.1-0.3,0.1
	c-1.5,0.5-2.9,1.1-4.3,1.7c-0.3,0.2-0.7,0.3-1,0.5c-1.4,0.7-2.8,1.5-4.2,2.4c-0.2,0.1-0.3,0.2-0.4,0.3c-1.2,0.8-2.3,1.8-3.4,2.8
	c-0.3,0.2-0.5,0.5-0.8,0.7c-1.2,1.1-2.2,2.3-3.3,3.5c-0.1,0.2-0.3,0.4-0.4,0.6c-0.9,1.1-1.7,2.3-2.4,3.5c-0.2,0.3-0.4,0.6-0.6,0.9
	c-0.8,1.4-1.5,2.8-2.1,4.3c-0.1,0.3-0.2,0.5-0.3,0.8c-0.5,1.3-0.9,2.7-1.3,4.1c-0.1,0.2-0.2,0.4-0.2,0.6c-2.8-2.1-5.8-3.7-9.1-4.9
	c-0.3-0.1-0.6-0.2-0.9-0.3c-1.5-0.5-3-1-4.6-1.3c-0.3-0.1-0.6-0.1-0.9-0.2c-0.3-0.1-0.6-0.2-1-0.2c-1-1.3-1.9-2.6-2.6-3.9
	c0-0.1,0.1-0.3,0.1-0.4c0.6-1.8,1.1-3.6,1.4-5.4c0.1-0.3,0.1-0.6,0.1-0.9c0.3-1.9,0.5-3.8,0.5-5.8c0-2-0.2-3.9-0.5-5.8
	c0-0.3-0.1-0.6-0.1-0.9c-0.3-1.9-0.8-3.7-1.4-5.4C211.7,177.4,211.7,177.3,211.7,177.2z M176.7,163.1c10.9,0,20.3,6.6,24.4,16.1
	c0.6,1.5,1.1,3,1.5,4.6c0,0.2,0.1,0.3,0.2,0.5c0.4,1.8,0.6,3.6,0.6,5.4c0,1.8-0.2,3.6-0.6,5.4c0,0.2-0.1,0.3-0.2,0.5
	c-0.4,1.6-0.8,3.1-1.5,4.6c-2,4.5-5.1,8.4-9.1,11.2c-0.3,0.2-0.6,0.4-0.8,0.6c-1.2,0.8-2.5,1.5-3.9,2.1c-0.2,0.1-0.5,0.2-0.7,0.3
	c-3.1,1.2-6.4,1.9-9.8,1.9c-0.8,0-1.6,0-2.4-0.1c-0.1-0.1-0.3-0.1-0.4-0.2c-0.7-0.4-1.3-0.7-2-1.1c-0.4-0.2-0.7-0.4-1.1-0.5
	c-0.7-0.3-1.4-0.6-2.1-0.9c-0.4-0.1-0.7-0.3-1.1-0.4c-0.8-0.3-1.6-0.5-2.4-0.7c-0.3-0.1-0.6-0.2-0.9-0.2c-0.9-0.2-1.8-0.4-2.7-0.6
	c-0.1,0-0.2,0-0.2,0c-7.2-5-11.4-13-11.4-21.8C150.1,175,162,163.1,176.7,163.1z M128.9,248.1c0-14.6,11.9-26.6,26.6-26.6
	c1.6,0,3.1,0.2,4.6,0.5c0.4,0.1,0.9,0.1,1.3,0.2c1.4,0.3,2.7,0.7,3.9,1.2c0.4,0.1,0.7,0.3,1.1,0.5c1.3,0.6,2.7,1.3,3.9,2.1l0.1,0.1
	c2.5,1.7,4.7,3.9,6.5,6.4c0.4,0.5,0.8,1.1,1.1,1.7c0.5,0.9,1,1.7,1.4,2.7c0.2,0.5,0.5,1.1,0.7,1.6c0.4,1.1,0.7,2.2,1,3.3
	c0.1,0.5,0.3,0.9,0.4,1.4c0.3,1.6,0.5,3.3,0.5,5c0,1.6-0.2,3.2-0.5,4.8c-0.1,0.3-0.1,0.6-0.1,0.8c-0.3,1.3-0.7,2.6-1.2,3.8
	c-0.2,0.5-0.4,1-0.6,1.6c-0.3,0.7-0.7,1.4-1.1,2c-0.4,0.7-0.8,1.5-1.3,2.1c-0.4,0.6-1,1.2-1.4,1.7c-1,1.2-2.1,2.3-3.3,3.3
	c-0.6,0.5-1.1,1-1.7,1.4c-0.7,0.5-1.4,0.9-2.2,1.3c-3.9,2.2-8.3,3.6-13,3.6C140.8,274.7,128.9,262.7,128.9,248.1z M121.6,324.7
	c-2.2-3.9-3.3-8.3-3.3-12.8c0-14.6,11.9-26.6,26.6-26.6c7,0,13.4,2.8,18.1,7.2c1,0.9,1.9,2,2.7,3c0.3,0.3,0.6,0.7,0.8,1
	c0.9,1.2,1.6,2.6,2.3,3.9c0.1,0.2,0.3,0.5,0.4,0.7c0.7,1.5,1.2,3.2,1.6,4.8c0,0.1,0.1,0.2,0.1,0.4c0.4,1.8,0.6,3.6,0.6,5.5
	c0,1.2-0.1,2.5-0.3,3.8c-2.7,1.3-5.2,3-7.5,4.9c-0.4,0.4-0.9,0.7-1.3,1.1c-0.7,0.7-1.4,1.4-2,2.1c-0.6,0.6-1.2,1.2-1.7,1.9
	c-0.5,0.7-1,1.4-1.5,2.1c-0.4,0.6-0.8,1.1-1.2,1.7c-0.1-0.1-0.2-0.1-0.4-0.2c-1.3-0.9-2.7-1.7-4.1-2.5c-0.4-0.2-0.8-0.4-1.3-0.6
	c-1.2-0.6-2.5-1.1-3.8-1.6c-0.3-0.1-0.6-0.2-0.9-0.3c-1.5-0.5-3.1-0.9-4.8-1.1c-0.4-0.1-0.8-0.1-1.3-0.2c-1.7-0.2-3.4-0.4-5.2-0.4
	c-2,0-3.9,0.2-5.8,0.5c-0.3,0-0.6,0.1-0.9,0.1c-1.9,0.3-3.7,0.8-5.5,1.5C121.8,324.6,121.7,324.6,121.6,324.7z M134.2,386.2
	c-14.6,0-26.6-11.9-26.6-26.6c0-10.6,6.3-19.7,15.3-24c0.7-0.3,1.4-0.6,2.1-0.9c0.7-0.3,1.5-0.5,2.2-0.7c0.9-0.2,1.7-0.5,2.6-0.6
	c0.5-0.1,1-0.1,1.6-0.2c3.6-0.4,7.2,0,10.6,1c0.3,0.1,0.6,0.2,1,0.3c1,0.3,2,0.7,2.9,1.2c0.5,0.3,1.1,0.6,1.6,0.9
	c0.7,0.4,1.5,0.8,2.2,1.3c0.8,0.6,1.5,1.2,2.3,1.9c0.4,0.4,0.9,0.7,1.2,1.1c0.5,0.5,1,1.2,1.4,1.7c0.7,0.8,1.4,1.6,1.9,2.5
	c0.4,0.6,0.7,1.3,1,1.9c0.4,0.8,0.9,1.6,1.3,2.5c0.3,0.9,0.6,1.8,0.8,2.7c0.2,0.7,0.5,1.4,0.6,2.2c0.3,1.7,0.5,3.4,0.5,5.1
	c0,1.7-0.2,3.3-0.5,4.9c-0.2,0.9-0.5,1.7-0.7,2.6c-0.3,0.9-0.5,1.9-0.8,2.7l0,0.1C154.6,379.5,145.1,386.2,134.2,386.2z
	 M187.3,375.6c-6.4,0-12.4-2.2-17.2-6.4c0-0.1,0-0.2,0.1-0.3c0.3-1.3,0.6-2.5,0.8-3.9c0-0.3,0.1-0.6,0.1-0.9c0.2-1.5,0.3-3,0.3-4.5
	c0-1.9-0.2-3.7-0.5-5.5c-0.1-0.3-0.1-0.7-0.2-1c-0.3-1.8-0.7-3.5-1.3-5.2c-0.1-0.2-0.2-0.5-0.3-0.7c-1.3-3.6-3.1-6.9-5.3-9.9
	c0,0-0.1-0.1-0.1-0.2c0.3-0.6,0.6-1.2,0.9-1.8c0.2-0.3,0.3-0.6,0.5-0.8c0.9-1.4,2-2.7,3.1-3.9c0.1-0.1,0.2-0.2,0.3-0.2
	c1.2-1.2,2.6-2.4,4.1-3.4c0,0,0,0,0,0c1.6-1,3.2-1.9,5-2.6l0.4-0.2c1.5-0.6,3-1,4.5-1.3c0.7-0.1,1.3-0.2,1.9-0.3
	c0.9-0.1,1.9-0.2,2.8-0.2c1.6,0,3.1,0.2,4.7,0.5c0.5,0.1,1,0.2,1.4,0.3c1.1,0.3,2.2,0.6,3.3,1c0.4,0.1,0.8,0.2,1.2,0.4
	c3,1.3,5.6,3.1,7.9,5.3c0.9,0.9,1.7,1.9,2.5,2.9c0.3,0.4,0.6,0.7,0.9,1.1c0.6,0.9,1.1,1.8,1.5,2.8c1.9,3.7,3.1,7.7,3.1,12.1
	c0,1.6-0.2,3.2-0.5,4.7c-0.1,0.3-0.1,0.6-0.2,1C210.6,366.6,200,375.6,187.3,375.6z M240.4,359.6c-5.9,0-11.6-2-16.3-5.6
	c0-0.1,0-0.2,0-0.3c0.2-1.5,0.3-3.1,0.3-4.7c0-1.2-0.1-2.4-0.2-3.6c0-0.3-0.1-0.6-0.1-0.9c-0.1-0.9-0.2-1.8-0.4-2.6
	c-0.1-0.3-0.1-0.6-0.2-0.9c-0.2-0.9-0.4-1.7-0.7-2.5c-0.1-0.3-0.2-0.6-0.3-0.9c-0.3-0.8-0.6-1.7-0.9-2.5c-0.1-0.3-0.2-0.6-0.4-0.8
	c-0.3-0.8-0.7-1.6-1.1-2.3c-0.2-0.3-0.3-0.6-0.5-0.9c-0.4-0.7-0.8-1.4-1.2-2c-0.2-0.3-0.4-0.7-0.7-1c-0.4-0.6-0.8-1.1-1.2-1.7
	c-0.3-0.4-0.6-0.8-1-1.2c-0.1-0.1-0.2-0.3-0.3-0.4c0.2-0.7,0.5-1.3,0.8-1.9l0.6-1.2c2.6-5.2,6.9-9.5,12.1-12.1l1.4-0.7
	c0.4-0.2,0.8-0.3,1.2-0.5c0.8-0.3,1.7-0.5,2.5-0.7c0.4-0.1,0.9-0.2,1.3-0.3c0.8-0.2,1.6-0.3,2.3-0.3c0.5-0.1,1-0.1,1.6-0.1
	c0.7,0,1.5,0,2.2,0c1,0,2,0.2,3,0.3c1,0.2,2.1,0.4,3.1,0.7c0.8,0.2,1.5,0.4,2.3,0.7c0.7,0.3,1.4,0.6,2.1,0.9
	c0.8,0.4,1.5,0.8,2.3,1.2c0.5,0.3,1,0.6,1.5,0.9c1.1,0.7,2.1,1.6,3,2.5c1,0.9,1.9,2,2.7,3c0.3,0.4,0.6,0.7,0.9,1.1
	c0.7,1,1.2,2,1.8,3.1c0.3,0.5,0.6,1,0.9,1.6c0.4,1,0.7,2.1,1,3.1c0.2,0.7,0.5,1.3,0.6,2c0.3,1.8,0.5,3.6,0.5,5.4
	C266.9,347.7,255,359.6,240.4,359.6z M293.5,338.4c-5.8,0-11.3-1.9-15.9-5.4c0,0,0,0,0-0.1c0-1.8-0.2-3.5-0.4-5.2
	c0-0.3-0.1-0.6-0.1-0.9c-0.6-3.7-1.8-7.1-3.4-10.3c0-0.1-0.1-0.1-0.1-0.2c-0.9-1.7-1.8-3.3-2.9-4.8c0,0,0,0,0,0
	c2.5-1.6,4.8-3.5,6.9-5.6c0.4-0.4,0.7-0.7,1-1.1c0.8-0.9,1.5-1.8,2.2-2.8c0.3-0.4,0.6-0.8,0.9-1.3c0.8-1.2,1.6-2.5,2.2-3.8
	c0.4-0.8,0.7-1.5,1.1-2.3c0.3-0.6,0.5-1.2,0.7-1.8c0.4-1,0.7-1.9,1-2.9c0-0.2,0.1-0.3,0.1-0.5c0.3-1.1,0.6-2.1,0.8-3.2
	c2-0.5,4.5-1,5.9-1c1.8,0,3.5,0.2,5.1,0.5c0.7,0.1,1.4,0.4,2.1,0.6c0.9,0.3,1.8,0.5,2.7,0.8c0.8,0.3,1.6,0.8,2.4,1.2
	c0.7,0.4,1.3,0.7,2,1.1c0.9,0.6,1.6,1.2,2.4,1.9c5.9,4.9,9.7,12.1,9.7,20.4C320,326.5,308.1,338.4,293.5,338.4z M330.7,258.7
	c0,10-5.7,19.2-14.5,23.6c-0.1-0.1-0.2-0.1-0.3-0.2c-3-2.3-6.3-4.1-9.9-5.4c-0.2-0.1-0.5-0.2-0.7-0.3c-1.7-0.6-3.4-1-5.2-1.3
	c-0.3-0.1-0.7-0.1-1-0.2c-1.8-0.3-3.6-0.5-5.5-0.5c-0.1,0-0.6,0-1.2,0.1c-1.5,0-3,0.2-4.4,0.4c0-0.1-0.1-0.2-0.1-0.3
	c-0.2-1.4-0.5-2.8-0.8-4.1c-0.1-0.2-0.1-0.5-0.2-0.7c-0.9-3.2-2.2-6.2-3.9-9c-0.1-0.2-0.2-0.3-0.3-0.5c-0.9-1.4-1.8-2.8-2.9-4.1
	c0.2-0.1,0.3-0.1,0.4-0.2c1.1-0.4,2.2-0.9,3.3-1.4c0.2-0.1,0.3-0.2,0.5-0.3c1.2-0.6,2.3-1.3,3.4-2c0,0,0,0,0.1,0
	c7.2-4.7,12.6-11.9,15.1-20.3C317.7,231.3,330.7,243.6,330.7,258.7z M341.5,179.3c27.8,2.6,49.9,24.8,52.6,52.6
	C366.3,229.3,344.2,207.1,341.5,179.3z"/>
</svg>
