<?xml version="1.0" encoding="utf-8"?>
<!-- Generator: Adobe Illustrator 22.0.1, SVG Export Plug-In . SVG Version: 6.00 Build 0)  -->
<svg version="1.1" id="Слой_1" xmlns="http://www.w3.org/2000/svg" xmlns:xlink="http://www.w3.org/1999/xlink" x="0px" y="0px"
	 viewBox="0 0 500 500" style="enable-background:new 0 0 500 500;" xml:space="preserve">
<style type="text/css">
	.st0{fill:#00ACE5;}
	.st1{fill:#F9F9F9;}
</style>
<g>
	<circle class="st0" cx="250" cy="250" r="250"/>
</g>
<g>
	<g>
		<path class="st1" d="M433.9,175.8c-0.4-2.9-3-4.8-5.9-4.4l-28.2,3.9c-5.9,0.8-10.9,4.7-13.3,10.1l-37.3,86.4
			c-2.1,4.9-6.7,8.4-12,9.2l-8.9,1.2l23.1-59.9l0.2,0c5.5,0,10-4.5,10-10l0-7.5c0-2.7-1-5.2-2.9-7.1c-1.9-1.9-4.4-2.9-7.1-2.9
			c0,0,0,0,0,0l-13.9,0.1c-4.8-11.6-14.5-18.6-26.6-19c-4.3-15-13.4-27.9-26.5-37.4c-12.5-9.1-28.4-14.8-44.6-16.1
			c-27.7-2.1-50.8,8.5-60.3,27.4c-19.2-0.4-35.6,10-43.2,27.4c-16.3,1.9-25.4,10.4-29.1,18.6l-19.4,0.1c-5.5,0-10,4.5-10,10l0,7.5
			c0,2.7,1,5.2,2.9,7.1c1.9,1.9,4.4,2.9,7.1,2.9c0,0,0,0,0,0l10.2,0l75.6,80.5c-7.7,1.1-14.7,4.9-19.8,10.6
			c-8.5-4.5-18.2-6-27.7-4.1c-22.8,4.4-37.8,26.6-33.4,49.5c2.2,11.1,8.5,20.6,17.8,26.9c7.1,4.8,15.2,7.2,23.5,7.2
			c2.7,0,5.4-0.3,8.2-0.8c22.8-4.4,37.8-26.6,33.4-49.5c-1.8-9.1-6.4-17.2-13.1-23.2c3.4-3.4,7.9-5.7,12.8-6.4l58.2-8.1l36.5,58.5
			c4.5,7.2,12.3,11.4,20.6,11.4c1.1,0,2.2-0.1,3.3-0.2c0,0,0,0,0,0c13.3-1.8,22.5-14.1,20.7-27.4l-7.3-52.5l31.2-4.3
			c8.9-1.2,16.6-7.1,20.2-15.4l37.3-86.4c0.9-2.1,2.9-3.6,5.1-3.9l28.2-3.9C432.3,181.3,434.3,178.7,433.9,175.8z M165.6,345.7
			c3.3,17.2-7.9,33.9-25.1,37.3c-8.3,1.6-16.8-0.1-23.8-4.8c-7-4.7-11.8-11.9-13.4-20.3c-3.3-17.2,7.9-33.9,25.1-37.3
			c6.7-1.3,13.5-0.4,19.6,2.4l-6.5,9.6c-3.1-1.1-6.4-1.5-9.7-1c-5.4,0.8-10.2,3.6-13.4,7.9s-4.7,9.7-3.9,15.1
			c0.8,5.4,3.6,10.2,7.9,13.4c3.6,2.7,7.8,4.1,12.2,4.1c0.9,0,1.9-0.1,2.9-0.2c5.4-0.8,10.2-3.6,13.4-7.9s4.7-9.7,3.9-15.1
			c-0.5-3.9-2.2-7.5-4.7-10.4l6.6-9.6C161.1,333.4,164.3,339.2,165.6,345.7z M126.5,345.8c1.6-2.1,3.9-3.5,6.6-3.9
			c0.5-0.1,0.9-0.1,1.4-0.1c2.1,0,4.2,0.7,6,2c2.1,1.6,3.5,3.9,3.9,6.6c0.4,2.6-0.3,5.2-1.9,7.4c-1.6,2.1-3.9,3.5-6.6,3.9
			c-2.6,0.4-5.2-0.3-7.4-1.9c-2.1-1.6-3.5-3.9-3.9-6.6v0C124.2,350.5,124.9,347.9,126.5,345.8z M140.5,187.2
			c2.1-0.1,3.9-1.5,4.6-3.4c4.1-11.3,15.2-23.7,33.4-23.7c1.3,0,2.7,0.1,4,0.2c2.3,0.2,4.5-1.1,5.4-3.3
			c6.5-16.7,26.6-26.2,51.3-24.3c14.4,1.1,28.3,6.1,39.3,14.1c12.2,8.9,20.3,21.1,23.5,35.4c0.6,2.6,3,4.3,5.6,4.1
			c0.8-0.1,1.5-0.1,2.2-0.1c0,0,0,0,0,0c6.8,0,12.5,3.1,16.1,8.6l-206.3,0.8C124.5,190.5,132.9,187.7,140.5,187.2z M292.7,365.3
			c-5.4,0.8-10.8-1.8-13.7-6.4L245,304.4l52.2-7.3l7.3,52.5C305.5,357.3,300.3,364.3,292.7,365.3z M311.6,284.6l-10.7,1.5
			c0,0,0,0,0,0l-65.3,9.1c0,0,0,0,0,0l-44.9,6.3c-2.5,0.4-5.5-0.9-7.6-3.1l-70.5-75.1l18.1-0.1c2.9,0,5.2-2.4,5.2-5.2
			c0-2.9-2.3-5.2-5.2-5.2c0,0,0,0,0,0l-42.2,0.2l0-6.7l262.8-1l0,6.7L168,212.6c-2.9,0-5.2,2.4-5.2,5.2c0,2.9,2.3,5.2,5.2,5.2
			c0,0,0,0,0,0l172.2-0.7l-21.9,56.8C317.2,282.1,314.6,284.1,311.6,284.6z"/>
	</g>
</g>
</svg>
