<?xml version="1.0" encoding="utf-8"?>
<!-- Generator: Adobe Illustrator 22.0.1, SVG Export Plug-In . SVG Version: 6.00 Build 0)  -->
<svg version="1.1" id="Слой_1" xmlns="http://www.w3.org/2000/svg" xmlns:xlink="http://www.w3.org/1999/xlink" x="0px" y="0px"
	 viewBox="0 0 500 500" style="enable-background:new 0 0 500 500;" xml:space="preserve">
<style type="text/css">
	.st0{fill:#00ACE5;}
	.st1{fill:#F9F9F9;}
</style>
<g>
	<circle class="st0" cx="250" cy="250" r="250"/>
</g>
<g transform="translate(1 1)">
	<g>
		<g>
			<path class="st1" d="M332.8,312.2c-1-2.1-2.6-3.1-4.7-3.1c-2.1,0-3.7,1-4.7,3.1c0,0-9.4,19.8-13,27.7c-2.1,4.7-4.2,8.9-3.1,15.1
				c1.6,8.3,8.3,15.1,16.7,16.7c1,0.5,2.6,0.5,3.7,0.5c4.7,0,9.9-1.6,14.1-5.2c4.7-4.2,7.3-9.9,7.3-16.2c0-4.2-1-6.8-2.6-9.9
				C343.2,333.6,333.3,313.3,332.8,312.2z M334.3,359.7c-2.6,2.1-5.7,2.6-8.9,2.1c-4.2-1-7.8-4.2-8.3-8.3c-0.5-2.6,0-4.7,2.1-8.9
				s5.7-11.5,8.3-17.7c3.1,6.8,7.3,15.1,8.9,19.3c1,2.6,1.6,4.2,1.6,5.7C338,355,336.9,357.6,334.3,359.7z"/>
			<path class="st1" d="M376.6,153.1c10.4,0,18.8-8.3,18.8-18.8c0-9.9-7.3-17.7-17.2-19.3l-202-19.8c-14.6-1-29.2,3.7-40.2,13.6
				s-17.2,24.5-17.2,39.1v225.1c-9,2.3-15.7,10.5-15.7,20.2v5.2c0,3.1,2.1,5.2,5.2,5.2h104.4c3.1,0,5.2-2.1,5.2-5.2v-5.2
				c0-9.7-6.7-17.9-15.7-20.2v-47.1c0-19.8,7.8-38.6,21.4-51.1c15.7-14.6,36-22.4,56.9-22.4c0.5,0,0.5,0,1,0h14.6v15.7
				c0,3.1,2.1,5.2,5.2,5.2h52.2c3.1,0,5.2-2.1,5.2-5.2v-15.7h15.7c3.1,0,5.2-2.1,5.2-5.2v-46.4c0-12-9.9-21.4-21.4-21.4h-77.8
				c-27.1,0-53.7,7.8-78.3,21.9v-48H376.6z M143.3,116.5c8.3-7.8,20.4-11.5,32.4-10.4l201.4,19.8c4.7,0.5,7.8,4.2,7.8,8.3
				c0,4.7-3.7,8.3-8.3,8.3H197.1h-67.3C130.8,132.7,135.5,123.3,143.3,116.5z M207.5,393.1h-93.9c0-5.7,4.7-10.4,10.4-10.4h73.1
				C202.8,382.7,207.5,387.4,207.5,393.1z M348.4,262.7h-41.7v-10.4h41.7V262.7z M195,214.6c1.6,1,3.7,1,5.2,0
				c24.5-16.2,52.7-25,80.4-25h78.3c6.3,0,11,5.2,11,11v41.2h-16.2h-52.2h-20.4c-0.5,0-0.5,0-1,0c-23.5,0-45.9,8.9-63.1,25
				c-16.2,14.6-25,36.5-25,59v46.4h-41.7v-15.7c0-3.1-2.1-5.2-5.2-5.2c-3.1,0-5.2,2.1-5.2,5.2v15.7h-10.4V153.1h10.4v10.4
				c0,3.1,2.1,5.2,5.2,5.2c3.1,0,5.2-2.1,5.2-5.2v-10.4h41.7v57.4C191.9,212.6,192.9,214.1,195,214.6z"/>
			<path class="st1" d="M144.9,267.9c-3.1,0-5.2,2.1-5.2,5.2v41.7c0,3.1,2.1,5.2,5.2,5.2c3.1,0,5.2-2.1,5.2-5.2v-41.7
				C150.1,270,148,267.9,144.9,267.9z"/>
			<path class="st1" d="M144.9,330.5c-3.1,0-5.2,2.1-5.2,5.2c0,3.1,2.1,5.2,5.2,5.2c3.1,0,5.2-2.1,5.2-5.2
				C150.1,333.1,148,330.5,144.9,330.5z"/>
			<path class="st1" d="M144.9,189.6c-3.1,0-5.2,2.1-5.2,5.2V247c0,3.1,2.1,5.2,5.2,5.2c3.1,0,5.2-2.1,5.2-5.2v-52.2
				C150.1,191.7,148,189.6,144.9,189.6z"/>
		</g>
	</g>
</g>
</svg>
