<?xml version="1.0" encoding="utf-8"?>
<!-- Generator: Adobe Illustrator 22.0.1, SVG Export Plug-In . SVG Version: 6.00 Build 0)  -->
<svg version="1.1" id="Слой_1" xmlns="http://www.w3.org/2000/svg" xmlns:xlink="http://www.w3.org/1999/xlink" x="0px" y="0px"
	 viewBox="0 0 500 500" style="enable-background:new 0 0 500 500;" xml:space="preserve">
<style type="text/css">
	.st0{fill:#00ACE5;}
	.st1{fill:#F9F9F9;}
</style>
<g>
	<circle class="st0" cx="250" cy="250" r="250"/>
</g>
<g transform="translate(1 1)">
	<g>
		<g>
			<path class="st1" d="M414,306.5c-1.1-4.6-2.8-9.1-5.1-13.1c2.3-2.3,2.3-5.7,0-8L397.5,274c-2.3-2.3-5.7-2.3-8,0
				c-4-2.3-8.5-4-13.1-5.1c0-3.4-2.3-5.7-5.7-5.7h-15.9c-3.4,0-5.7,2.3-5.7,5.7c-4.6,1.1-9.1,2.8-13.1,5.1c-2.3-2.3-5.7-2.3-8,0
				l-11.4,11.4c-2.3,2.3-2.3,5.7,0,8c-2.3,4-4,8.5-5.1,13.1c-3.4,0-5.7,2.3-5.7,5.7v15.9c0,3.4,2.3,5.7,5.7,5.7
				c1.1,4.6,2.8,9.1,5.1,13.1c-2.3,2.3-2.3,5.7,0,8l11.4,11.4c2.3,2.3,5.7,2.3,8,0c4,2.3,8.5,4,13.1,5.1c0,3.4,2.3,5.7,5.7,5.7h15.9
				c2.8,0,5.7-2.3,5.7-5.7c4.6-1.1,9.1-2.8,13.1-5.1c2.3,2.3,5.7,2.3,8,0l11.4-11.4c2.3-2.3,2.3-5.7,0-8c2.3-4,4-8.5,5.1-13.1
				c3.4,0,5.7-2.3,5.7-5.7v-15.9C419.7,308.7,417.4,306.5,414,306.5z M407.7,323c-2.3,0.6-4,2.3-4.6,4.6c-0.6,6.3-3.4,11.9-6.8,17.1
				c-1.1,1.7-1.1,4.6,0,6.3l-3.4,3.4c-1.7-1.1-4.6-1.1-6.3,0c-5.1,3.4-10.8,5.7-17.1,6.8c-2.3,0.6-4,2.3-4.6,4.6h-4.6
				c-0.6-2.3-2.3-4-4.6-4.6c-6.3-0.6-11.9-3.4-17.1-6.8c-1.7-1.1-4.6-1.1-6.3,0l-3.4-3.4c1.1-1.7,1.1-4.6,0-6.3
				c-3.4-5.1-5.7-10.8-6.8-17.1c-0.6-2.3-2.3-4-4.6-4.6v-4.6c2.3-0.6,4-2.3,4.6-4.6c0.6-6.3,3.4-11.9,6.8-17.1
				c1.1-1.7,1.1-4.6,0-6.3l3.4-3.4c1.7,1.1,4.6,1.1,6.3,0c5.1-3.4,10.8-5.7,17.1-6.8c2.3-0.6,4-2.3,4.6-4.6h4.6
				c0.6,2.3,2.3,4,4.6,4.6c6.3,0.6,11.9,3.4,17.1,6.8c1.7,1.1,4.6,1.1,6.3,0l3.4,3.4c-1.1,1.7-1.1,4.6,0,6.3
				c3.4,5.1,5.7,10.8,6.8,17.1c0.6,2.3,2.3,4,4.6,4.6V323z"/>
			<path class="st1" d="M362.8,291.7c-15.9,0-28.4,12.5-28.4,28.4c0,15.9,12.5,28.4,28.4,28.4s28.4-12.5,28.4-28.4
				C391.2,304.2,378.7,291.7,362.8,291.7z M362.8,337.2c-9.7,0-17.1-7.4-17.1-17.1c0-9.7,7.4-17.1,17.1-17.1
				c9.7,0,17.1,7.4,17.1,17.1C379.8,329.8,372.4,337.2,362.8,337.2z"/>
			<path class="st1" d="M295.6,332.4c0.1-0.7,0.1-1.3,0.1-2c-0.6-3.4-1.1-6.8-1.1-10.2s0.6-6.8,1.7-10.2c0.4-1.1,0.3-2.1-0.1-3.1
				c2-10.5,6.4-20.3,13.2-28.8c0.2-0.2,0.3-0.5,0.4-0.8c12.5-15.5,31.7-25.4,53-25.4c9.1,0,18.1,1.8,26.3,5.2
				c0.2,0.2,0.6,0.3,0.9,0.4c7.4,3.2,14.2,7.6,20,13.2c2.3,2.3,5.7,2.3,8,0c2.3-2.3,2.3-5.7,0-8c-6.2-6-13.4-10.9-21-14.5v-76
				c0-3.4-2.3-5.7-5.7-5.7c-15.9,0-29.6,11.4-33,27.3l-6.2,47.4c-19.9,2.7-37.5,12.8-49.9,27.5c-12.2-1.6-21.7-10.7-24.1-22.5h5.1
				c3.4,0,5.7-2.3,5.7-5.7v-15l27.8-23.2l13.7,13.7c1.1,1.1,2.3,1.7,4,1.7s2.8-0.6,4-1.7c2.3-2.3,2.3-5.7,0-8L321.3,191
				c-0.2-0.3-0.5-0.6-0.9-0.9l-16.2-16.2c-2.3-2.3-5.7-2.3-8,0c-2.3,2.3-2.3,5.7,0,8l12.4,12.4l-19.8,16.5v-4.5
				c0-3.4-2.3-5.7-5.7-5.7h-68.3v-34.1c0-3.4-2.3-5.7-5.7-5.7h-5.7v-17.1c0-6.3,5.1-11.4,11.4-11.4c3.4,0,5.7-2.3,5.7-5.7
				c0-3.4-2.3-5.7-5.7-5.7c-12.5,0-22.8,10.2-22.8,22.8v17.1h-5.7c-3.4,0-5.7,2.3-5.7,5.7v34.1H158v-12.3
				c6.7-2.3,11.4-8.5,11.4-16.1c0-9.7-7.4-17.1-17.1-17.1h-22.8c-9.7,0-17.1,7.4-17.1,17.1c0,7.7,4.6,13.9,11.4,16.1v12.3
				c-15.9,0-28.4,12.5-28.4,28.4v11.4v47.1c-10.5,9.4-17.1,23-17.1,38.3c0,28.4,22.8,51.2,51.2,51.2c24.5,0,44.8-16.9,49.9-39.8
				h105.6c1.1,4.7,2.5,9.2,4.3,13.7c0.6,2.3,2.8,3.4,5.1,3.4c0.6,0,1.7,0,2.3-0.6c2.8-1.1,4-4.6,2.8-7.4
				C297.8,341.9,296.4,337.2,295.6,332.4z M370.2,195.5c1.1-8.5,7.4-14.8,15.4-17.1v65.3c-0.8-0.2-1.7-0.5-2.5-0.7
				c-6-1.7-12-2.6-18.5-2.6L370.2,195.5z M277.4,212v9.3c-0.4,1.2-0.4,2.5,0,3.7v9.8h-5.7h-56.9V212L277.4,212L277.4,212z
				 M192.1,172.2h11.4v34.1v34.1v17.1h-11.4v-17.1v-34.1V172.2z M129.5,166.5h22.8c3.4,0,5.7,2.3,5.7,5.7c0,3.4-2.3,5.7-5.7,5.7
				h-22.8c-3.4,0-5.7-2.3-5.7-5.7C123.8,168.8,126.1,166.5,129.5,166.5z M135.2,189.3h11.4v11.4h-11.4V189.3z M106.8,229.1
				c0-9.7,7.4-17.1,17.1-17.1h5.7h22.8h28.4v22.8h-74V229.1z M106.8,279.7v-33.6h74v17.1c0,3.4,2.3,5.7,5.7,5.7h22.8
				c3.4,0,5.7-2.3,5.7-5.7v-17.1h51.8c2.3,15.3,13.6,27.8,28.3,32.4c-4.6,7.5-8,15.7-9.9,24.5H175.6c-8.7-16.8-24.5-27.4-43.2-28.4
				c-0.2,0-0.3,0-0.5,0c-0.8,0-1.6-0.1-2.4-0.1c-0.9,0-1.8,0-2.6,0.1c0,0,0,0,0,0C119.8,275,112.8,276.7,106.8,279.7z M129.5,365.6
				c-22.2,0-39.8-17.6-39.8-39.8c0-20.8,15.5-37.6,35.7-39.6c0,0,0.1,0,0.1,0c0.6-0.1,1.2-0.1,1.7-0.1c0.1,0,0.2,0,0.4,0
				c0.6,0,1.3,0,2,0c0.6,0,1.3,0,1.9,0c0.2,0,0.3,0,0.5,0c0.5,0,1,0.1,1.5,0.1c0.1,0,0.3,0,0.4,0c1.3,0.1,2.5,0.3,3.7,0.6
				c0.1,0,0.1,0,0.2,0c0.6,0.1,1.2,0.3,1.8,0.4c0,0,0.1,0,0.1,0c1.3,0.3,2.5,0.7,3.7,1.1c0,0,0.1,0,0.1,0c0.5,0.2,1.1,0.4,1.6,0.6
				c0.1,0,0.1,0.1,0.2,0.1c0.6,0.2,1.1,0.5,1.7,0.8c0,0,0.1,0,0.1,0.1c0.5,0.2,0.9,0.4,1.3,0.7c0.3,0.1,0.5,0.3,0.8,0.4
				c0.2,0.1,0.3,0.2,0.5,0.3c7.4,4.3,13.4,11.1,16.9,19.7c0.1,0.4,0.3,0.8,0.5,1.2c1.5,4.2,2.3,8.8,2.3,13.6
				C169.4,348,151.7,365.6,129.5,365.6z M283.1,325.8H180.7c0-0.6,0-1.3,0-1.9c-0.1-2.4-0.3-4.8-0.8-7.2c-0.1-0.7-0.2-1.5-0.3-2.3
				h103.5c0,1.7,0,4,0,5.7S283.1,324.1,283.1,325.8z"/>
			<path class="st1" d="M129.5,303c-12.5,0-22.8,10.2-22.8,22.8s10.2,22.8,22.8,22.8s22.8-10.2,22.8-22.8
				C152.3,313.3,142,303,129.5,303z M129.5,337.2c-6.3,0-11.4-5.1-11.4-11.4s5.1-11.4,11.4-11.4c6.3,0,11.4,5.1,11.4,11.4
				S135.8,337.2,129.5,337.2z"/>
			<path class="st1" d="M231.9,268.9h22.8c3.4,0,5.7-2.3,5.7-5.7s-2.3-5.7-5.7-5.7h-22.8c-3.4,0-5.7,2.3-5.7,5.7
				S228.5,268.9,231.9,268.9z"/>
			<path class="st1" d="M220.6,286h45.5c3.4,0,5.7-2.3,5.7-5.7s-2.3-5.7-5.7-5.7h-45.5c-3.4,0-5.7,2.3-5.7,5.7S217.1,286,220.6,286z
				"/>
			<path class="st1" d="M146.6,268.9c3.4,0,5.7-2.3,5.7-5.7s-2.3-5.7-5.7-5.7s-5.7,2.3-5.7,5.7S143.2,268.9,146.6,268.9z"/>
			<path class="st1" d="M129.5,263.2c0-3.4-2.3-5.7-5.7-5.7s-5.7,2.3-5.7,5.7s2.3,5.7,5.7,5.7S129.5,266.6,129.5,263.2z"/>
		</g>
	</g>
</g>
</svg>
