<?xml version="1.0" encoding="utf-8"?>
<!-- Generator: Adobe Illustrator 22.0.1, SVG Export Plug-In . SVG Version: 6.00 Build 0)  -->
<svg version="1.1" id="Слой_1" xmlns="http://www.w3.org/2000/svg" xmlns:xlink="http://www.w3.org/1999/xlink" x="0px" y="0px"
	 viewBox="0 0 500 500" style="enable-background:new 0 0 500 500;" xml:space="preserve">
<style type="text/css">
	.st0{fill:#00ACE5;}
	.st1{fill:#F9F9F9;}
</style>
<g>
	<circle class="st0" cx="250" cy="250" r="250"/>
</g>
<path class="st1" d="M105,397h240.8c2.8,0,5-2.2,5-5v-45.1h35.1c2.8,0,5-2.2,5-5v-50.2c0-2.8-2.2-5-5-5h-35.1v-45.1c0-2.8-2.2-5-5-5
	h-9.2c0.7-3.3,0-6.7-2.1-9.4l-22.7-30.2l10.5-7.9c4.7-3.5,7.2-9.1,6.9-14.9l-0.5-9c-0.1-2.5,1-4.8,2.9-6.3l10.5-7.8l4.4,5.9
	c0.8,1.1,2,1.8,3.3,2c0.2,0,0.5,0.1,0.7,0c1.1,0,2.1-0.4,3-1l41.4-31c6.6-5,8-14.4,3-21.1l-2.8-3.7c-5-6.6-14.4-8-21.1-3l-41.4,31
	c-2.2,1.7-2.7,4.8-1,7l4.4,5.9l-10.5,7.9c-4.7,3.5-7.2,9.1-6.9,14.9l0.5,9c0.1,2.5-1,4.8-2.9,6.3l-10.5,7.9l-22.7-30.2
	c-2.4-3.2-6.2-5-10.2-4.7c-3.8,0.3-7.2,2.5-9,5.8l-41.2,76.7H105c-2.8,0-5,2.2-5,5v50.2c0,2.8,2.2,5,5,5h35.1v40.1H105
	c-2.8,0-5,2.2-5,5V392C100,394.7,102.3,397,105,397z M380.1,107c2.2-1.7,5.4-1.2,7,1l2.8,3.7c1.7,2.2,1.2,5.4-1,7l-37.4,28
	l-8.8-11.7L380.1,107z M190.3,346.8h70.2V387h-70.2V346.8z M230.4,296.7h70.2v40.1h-70.2V296.7z M340.8,387h-70.2v-40.1h70.2V387z
	 M380.9,336.8h-70.2v-40.1h70.2V336.8z M340.8,286.6h-70.2v-29.2l51.3-10.9h18.9V286.6z M272.8,164.5c0.2-0.4,0.5-0.6,0.9-0.6l0.1,0
	c0.5,0,1,0.3,1.3,0.7l22.7,30.2l-20.7,15.5c-2.2,1.7-2.7,4.8-1,7c1.7,2.2,4.8,2.7,7,1l20.7-15.5l22.7,30.2c0.4,0.4,0.5,1,0.3,1.6
	c-0.1,0.4-0.4,0.6-0.8,0.7l-99.5,21.2c-0.6,0.1-1.2-0.2-1.6-0.7c-0.4-0.5-0.5-1.2-0.2-1.7L272.8,164.5z M216.8,261.9
	c2.7,3.7,7.3,5.4,11.7,4.5l32-6.8v27.1h-70.2v-40.1h27.1l-1.6,2.9C213.7,253.4,214.1,258.3,216.8,261.9z M110,266.6h10
	c2.8,0,5-2.2,5-5c0-2.8-2.2-5-5-5h-10v-10h70.2v40.1H110V266.6z M150.2,296.7h70.2v40.1h-70.2V296.7z M110,346.8h70.2V387H110V346.8
	z"/>
<path class="st1" d="M167.2,261.5c0-2.8-2.2-5-5-5h-20.1c-2.8,0-5,2.2-5,5c0,2.8,2.2,5,5,5h20.1C165,266.6,167.2,264.3,167.2,261.5z
	"/>
</svg>
