<?xml version="1.0" encoding="utf-8"?>
<!-- Generator: Adobe Illustrator 22.0.1, SVG Export Plug-In . SVG Version: 6.00 Build 0)  -->
<svg version="1.1" id="Слой_1" xmlns="http://www.w3.org/2000/svg" xmlns:xlink="http://www.w3.org/1999/xlink" x="0px" y="0px"
	 viewBox="0 0 500 500" style="enable-background:new 0 0 500 500;" xml:space="preserve">
<style type="text/css">
	.st0{fill:#00ACE5;}
	.st1{fill:#F9F9F9;}
</style>
<g>
	<circle class="st0" cx="250" cy="250" r="250"/>
</g>
<g>
	<g>
		<g>
			<path class="st1" d="M125.7,338.1c-10.8,0-19.5,8.8-19.5,19.5s8.8,19.5,19.5,19.5s19.5-8.8,19.5-19.5S136.5,338.1,125.7,338.1z
				 M125.7,366.8c-5.1,0-9.2-4.1-9.2-9.2s4.1-9.2,9.2-9.2c5.1,0,9.2,4.1,9.2,9.2S130.8,366.8,125.7,366.8z"/>
			<path class="st1" d="M342.9,377.1c10.8,0,19.5-8.8,19.5-19.5s-8.8-19.5-19.5-19.5s-19.5,8.8-19.5,19.5
				C323.3,368.4,332.1,377.1,342.9,377.1z M342.9,348.4c5.1,0,9.2,4.1,9.2,9.2s-4.1,9.2-9.2,9.2c-5.1,0-9.2-4.1-9.2-9.2
				S337.8,348.4,342.9,348.4z"/>
			<path class="st1" d="M148.3,345.6c-1,1.3-1.3,3-0.8,4.6c0.7,2.4,1.1,4.9,1.1,7.4c0,2.5-0.4,5-1.1,7.4c-0.5,1.6-0.2,3.3,0.8,4.6
				c1,1.3,2.5,2.1,4.2,2.1h163.6c1.6,0,3.2-0.8,4.2-2.1c1-1.3,1.3-3,0.8-4.6c-0.7-2.4-1.1-4.9-1.1-7.4c0-2.5,0.4-5,1.1-7.4
				c0.5-1.6,0.2-3.3-0.8-4.6c-1-1.3-2.5-2.1-4.2-2.1H152.5C150.8,343.5,149.3,344.3,148.3,345.6z M158.8,353.8h151
				c-0.1,1.3-0.2,2.5-0.2,3.8s0.1,2.5,0.2,3.8h-151c0.1-1.3,0.2-2.5,0.2-3.8S158.9,355.1,158.8,353.8z"/>
			<path class="st1" d="M212.9,268c-2.8,0-5.2,2.3-5.2,5.2c0,2.8,2.3,5.2,5.2,5.2h12c2.8,0,5.2-2.3,5.2-5.2c0-2.8-2.3-5.2-5.2-5.2
				H212.9z"/>
			<path class="st1" d="M104.4,286.4c1.9,0,3.7-1.1,4.6-2.9l12.2-24.9c1.2-2.6,0.2-5.6-2.4-6.9c-2.6-1.3-5.6-0.2-6.9,2.4L99.8,279
				c-1.2,2.6-0.2,5.6,2.4,6.9C102.9,286.3,103.6,286.4,104.4,286.4z"/>
			<path class="st1" d="M128.8,286.4c1.9,0,3.7-1.1,4.6-2.9l12.2-24.9c1.2-2.6,0.2-5.6-2.4-6.9c-2.6-1.3-5.6-0.2-6.9,2.4L124.1,279
				c-1.2,2.6-0.2,5.6,2.4,6.9C127.2,286.3,128,286.4,128.8,286.4z"/>
			<path class="st1" d="M153.1,286.4c1.9,0,3.7-1.1,4.6-2.9l12.2-24.9c1.2-2.6,0.2-5.6-2.4-6.9c-2.6-1.3-5.6-0.2-6.9,2.4L148.5,279
				c-1.2,2.6-0.2,5.6,2.4,6.9C151.6,286.3,152.4,286.4,153.1,286.4z"/>
			<path class="st1" d="M425.1,257.1l-12.7-29.4c-0.1-0.2-0.1-0.3-0.2-0.4l-21.7-51.9c-1.1-2.6-4.1-3.9-6.7-2.8
				c-2.6,1.1-3.9,4.1-2.8,6.7l20,47.7l-6.8,3l-45.7-87.7l0,0l-1-1.9l-6-11.6c0,0,0,0,0,0c-0.1-0.3-0.3-0.6-0.4-0.8
				c0-0.1-0.1-0.2-0.1-0.3c-0.1-0.2-0.1-0.4-0.2-0.6c0-0.1,0-0.2-0.1-0.3c0-0.2-0.1-0.4-0.1-0.7c0-0.1,0-0.2,0-0.3
				c0-0.2,0-0.5,0-0.7c0-1,0.1-2.1,0.5-3.1c0.8-2.3,2.5-4,4.8-4.9c4.3-1.8,9.3,0.3,11.1,4.6l16.1,38.5c1.1,2.6,4.1,3.9,6.7,2.8
				c2.6-1.1,3.9-4.1,2.8-6.7l-16.1-38.5c-4-9.5-15-14.1-24.5-10.1c-4.9,2-8.7,6-10.5,10.9c-0.3,0.9-0.6,1.9-0.8,2.9L252,153.5
				c-1.3-0.2-2.7-0.3-4.1-0.3h-20.9c-7.4,0-13.4,6-13.4,13.4v22.1h-13.8c-6.6,0-11.9,5.3-11.9,11.9v29.3c0,0.9-0.7,1.6-1.6,1.6H87
				c-6.6,0-11.9,5.3-11.9,11.9V256c0,2.8,2.3,5.2,5.2,5.2s5.2-2.3,5.2-5.2v-12.5c0-0.9,0.7-1.6,1.6-1.6h99.4
				c6.6,0,11.9-5.3,11.9-11.9v-29.3c0-0.9,0.7-1.6,1.6-1.6h19h52.9h3.6c0.8,0,1.4,0.4,1.8,1.1l15.7,32.1c0.4,0.9,0.7,1.9,0.7,3v62.5
				c0,1.1-0.9,2-2,2h-11.7h-96.9H87c-0.9,0-1.6-0.7-1.6-1.6v-21.3c0-2.8-2.3-5.2-5.2-5.2s-5.2,2.3-5.2,5.2V298
				c0,6.6,5.3,11.9,11.9,11.9h90.8v11.3h-56.8c-20.1,0-36.4,16.3-36.4,36.4c0,20.1,16.3,36.4,36.4,36.4h226.8
				c20.1,0,36.4-16.3,36.4-36.4c0-20.1-16.3-36.4-36.4-36.4H285v-11.3h6.6c6.8,0,12.3-5.5,12.3-12.3v-62.5c0-2.6-0.6-5.2-1.7-7.5
				l-15.7-32.1c-1.8-3.7-5.4-6.2-9.4-6.8v-2.6l64.7-34.5l42.9,82.4L336.2,255c-3.3,1.4-5.3,4.5-5.4,8.1c0,3.5,2,6.7,5.2,8.2
				l46.6,21.1c3,1.4,6.2,2,9.5,2c3.2,0,6.2-0.6,9.1-1.9l11.9-5.1C424.7,282.3,430.1,268.7,425.1,257.1z M188,309.9h86.6v11.3h0H188
				V309.9z M347.7,331.5c14.4,0,26.1,11.7,26.1,26.1c0,14.4-11.7,26.1-26.1,26.1H120.9c-14.4,0-26.1-11.7-26.1-26.1
				c0-14.4,11.7-26.1,26.1-26.1h62h96.9H347.7z M266.6,182.2v0.9v5.6H224v0v-22.1c0-1.7,1.4-3.1,3.1-3.1h20.9c1.3,0,2.5,0.1,3.7,0.4
				c0.5,0.1,0.9,0.2,1.4,0.3c0.1,0,0.2,0.1,0.3,0.1c0.4,0.1,0.8,0.3,1.2,0.4c0.1,0.1,0.3,0.1,0.4,0.2c0.4,0.2,0.7,0.3,1.1,0.5
				c0.1,0.1,0.3,0.1,0.4,0.2c0.3,0.2,0.6,0.3,0.9,0.5c0.2,0.1,0.3,0.2,0.5,0.3c0.3,0.2,0.6,0.4,0.8,0.6c0.1,0.1,0.2,0.2,0.4,0.3
				c0.3,0.2,0.6,0.5,0.9,0.8c0.1,0.1,0.2,0.2,0.3,0.3c0.3,0.3,0.6,0.6,0.9,0.9c0.1,0.1,0.1,0.1,0.2,0.2c0.3,0.3,0.6,0.7,0.9,1
				c0,0,0,0,0,0c0.3,0.4,0.6,0.8,0.9,1.2c0,0,0,0,0,0c0.3,0.4,0.6,0.9,0.8,1.3c0,0,0,0,0,0c1,1.8,1.8,3.8,2.1,5.9c0,0.1,0,0.1,0,0.2
				c0.1,0.5,0.1,1,0.2,1.5c0,0.1,0,0.1,0,0.2C266.6,181.2,266.6,181.7,266.6,182.2L266.6,182.2L266.6,182.2z M276,175
				c-1-3.9-2.8-7.6-5.3-10.7c-0.1-0.1-0.1-0.2-0.2-0.2c-0.2-0.2-0.4-0.5-0.6-0.7c-0.1-0.1-0.2-0.2-0.3-0.4c-0.2-0.2-0.3-0.4-0.5-0.6
				c-0.1-0.2-0.3-0.3-0.4-0.5c-0.1-0.1-0.3-0.3-0.4-0.4c-0.2-0.2-0.5-0.4-0.7-0.7c-0.1-0.1-0.1-0.1-0.2-0.2
				c-0.6-0.6-1.3-1.1-1.9-1.6l66-27.2c0,0,0,0.1,0.1,0.1c0.2,0.5,0.4,1,0.7,1.4l4.7,9L276,175z M409,277.8l-11.9,5.1
				c-3.3,1.4-7,1.4-10.2-0.1l-43.7-19.7l50.1-21.7c0.1,0,0.3-0.1,0.4-0.2l11.2-4.9l10.7,24.7C418.4,267.6,415.4,275.1,409,277.8z"/>
			<path class="st1" d="M278.1,261.2L278.1,261.2c3.7,0,6.6-3,6.6-6.6v-17.8c0-1-0.2-2-0.7-2.9l-11.9-24.4c-1.1-2.3-3.4-3.7-6-3.7
				h-52.7c-3.7,0-6.6,3-6.6,6.6v24.3c0,1.8,0.7,3.5,2,4.7l18.2,18c1.2,1.2,2.9,1.9,4.7,1.9H278.1z M217.2,235v-19h46.7l10.5,21.6
				v13.3h-41.2L217.2,235z"/>
		</g>
	</g>
</g>
</svg>
