<?xml version="1.0" encoding="utf-8"?>
<!-- Generator: Adobe Illustrator 22.0.1, SVG Export Plug-In . SVG Version: 6.00 Build 0)  -->
<svg version="1.1" id="Слой_1" xmlns="http://www.w3.org/2000/svg" xmlns:xlink="http://www.w3.org/1999/xlink" x="0px" y="0px"
	 viewBox="0 0 500 500" style="enable-background:new 0 0 500 500;" xml:space="preserve">
<style type="text/css">
	.st0{fill:#00ACE5;}
	.st1{fill:#F9F9F9;}
</style>
<g>
	<circle class="st0" cx="250" cy="250" r="250"/>
</g>
<g>
	<g>
		<g>
			<path class="st1" d="M385.3,356.5h0.4v-29.2c0-0.6-0.1-15.5-5.3-31.1l-15.8-37h-12.9h-12.9l-16,37.3c-5,15.1-5.1,30.1-5.1,30.7
				v9.7h-14.6c-8,0-14.6-6.5-14.6-14.6v-20.2c23.2-13.5,38.9-38.5,38.9-67.2v-0.7c8.4-2.2,14.6-9.7,14.6-18.7
				c0-8.7-3.3-14.2-5.1-16.7c0.2-0.9,0.3-1.8,0.3-2.8v-9.7c0-48.2-39.2-87.5-87.5-87.5s-87.5,39.2-87.5,87.5v9.7
				c0,1,0.1,1.9,0.3,2.8c-1.8,2.4-5.1,7.9-5.1,16.7c0,9,6.2,16.6,14.6,18.7v0.7c0,28.7,15.7,53.8,38.9,67.2v20.2
				c0,8-6.5,14.6-14.6,14.6h-24.3v-6.8c9.6-5.8,14.6-15.1,14.6-27.2c0-11.8-8-25.6-23.2-29l-5.9-1.3v25.5h-9.7v-25.5l-5.9,1.3
				c-15.2,3.5-23.2,17.2-23.2,29c0,12,5,21.4,14.6,27.2v12.2c-20,9.2-34,29.5-34,52.9v4.9h9.7v-4.9c0-25.1,19.2-45.9,43.7-48.3v53.2
				h9.7v-53.4h14.6v53.4h9.7v-53.4h9.7c2,0,3.9-0.3,5.7-0.8c4.2,22.5,24,39.6,47.7,39.6s43.5-17.1,47.7-39.6
				c1.8,0.4,3.7,0.8,5.7,0.8h9.7v53.4h9.7v-53.4h14.6v53.4h9.7V347c24.5,2.4,43.7,23.2,43.7,48.3v4.9h9.7v-4.9
				C400.2,380.4,394.5,366.8,385.3,356.5z M164.9,323l-2.7,1.3v12.7h-4.9c-5,0-9.9,0.7-14.6,1.9v-14.6L140,323
				c-8-4-11.9-10.5-11.9-19.9c0-6.2,3.3-13.3,9.7-17.2v22H167v-22c6.4,3.9,9.7,10.9,9.7,17.2C176.7,312.5,172.9,319,164.9,323z
				 M327.4,211.4c1.4-0.9,2.6-1.8,3.7-2.8c0.6,1.8,1.2,4.1,1.2,7c0,3.6-2,6.7-4.9,8.4V211.4z M244.8,109v33.8h9.7V109
				c39.7,2.5,71.4,34.9,72.7,74.9c-17.3-9.2-53.6-12-77.6-12s-60.3,2.8-77.6,12C173.3,143.9,205,111.4,244.8,109z M171.9,224
				c-2.9-1.7-4.9-4.8-4.9-8.4c0-2.9,0.5-5.2,1.2-7c1.1,1,2.3,1.9,3.7,2.8V224z M171.9,196.2c1-5,29.2-14.6,77.7-14.6
				c48.5,0,76.8,9.6,77.7,14.6c0,9.6-29.1,19.4-77.7,19.4C201,215.6,171.9,205.7,171.9,196.2z M181.6,235v-18.8
				c21.4,8.2,54.6,9.1,68,9.1s46.6-0.9,68-9.1V235c0,37.5-30.5,68-68,68S181.6,272.6,181.6,235z M249.6,375.9
				c-19.9,0-36.3-15.1-38.6-34.4c5.7-4.4,9.4-11.3,9.4-19.1v-15.4c9,3.7,18.8,5.7,29.2,5.7c10.3,0,20.1-2.1,29.2-5.7v15.4
				c0,7.8,3.7,14.6,9.4,19.1C286,360.9,269.5,375.9,249.6,375.9z M340.9,337.1h-13.5v-9.7c0-0.1,0.1-13.9,4.5-27.2l13.3-31.1h1.7
				v44.6c-5.6,2-9.7,7.4-9.7,13.7C337.1,331.1,338.5,334.5,340.9,337.1z M351.7,332.2c-2.7,0-4.9-2.2-4.9-4.9s2.2-4.9,4.9-4.9
				s4.9,2.2,4.9,4.9C356.5,330,354.3,332.2,351.7,332.2z M375.9,348.1c-5-3.6-10.6-6.5-16.7-8.4c4.1-2.6,6.9-7.1,6.9-12.4
				c0-6.3-4.1-11.7-9.7-13.7v-44.6h1.7l13.2,30.7c4.5,13.6,4.6,27.5,4.6,27.6L375.9,348.1L375.9,348.1z"/>
			<polygon class="st1" points="254.5,239.9 298.2,239.9 298.2,230.2 244.8,230.2 244.8,278.8 254.5,278.8 			"/>
			<rect x="186.5" y="162.2" class="st1" width="9.7" height="9.7"/>
			<rect x="205.9" y="157.3" class="st1" width="9.7" height="9.7"/>
		</g>
	</g>
</g>
</svg>
