<?xml version="1.0" encoding="utf-8"?>
<!-- Generator: Adobe Illustrator 22.0.1, SVG Export Plug-In . SVG Version: 6.00 Build 0)  -->
<svg version="1.1" id="Слой_1" xmlns="http://www.w3.org/2000/svg" xmlns:xlink="http://www.w3.org/1999/xlink" x="0px" y="0px"
	 viewBox="0 0 500 500" style="enable-background:new 0 0 500 500;" xml:space="preserve">
<style type="text/css">
	.st0{fill:#00ACE5;}
	.st1{fill:#F9F9F9;}
</style>
<g>
	<circle class="st0" cx="250" cy="250" r="250"/>
</g>
<path class="st1" d="M402,335.4c-3-11.1-14.5-17.7-25.6-14.7l-28.4,8.7c3.8-17-5.2-34.2-21.2-40.9c2.6-7.9,1.3-16.6-3.6-23.3
	c-4.9-6.7-12.7-10.7-21-10.7c-0.5,0-1,0-1.6,0c-4.1-13.6-15.6-23.5-29.6-25.6v-7.4c0-4.1,1.6-8.1,4.6-11l14-14
	c6.8,5.5,15.4,8.6,24.2,8.6c13.1-0.4,25.4-6.1,34.4-15.7c16.8-16.8,32.7-79.8,34.4-86.9c0.4-1.8-0.1-3.6-1.4-4.9
	c-1.3-1.3-3.1-1.8-4.9-1.4c-7.1,1.8-70.1,17.7-86.9,34.4c-18,18-20.6,41.4-7.1,58.5l-14,14c-2.6,2.6-4.6,5.7-5.9,9.1
	c-2-2.2-4.3-4-6.8-5.6l-17.7-10.6c4.7-9.5,5.2-20.4,1.5-30.3c-4.4-10.9-12.5-20-22.9-25.7c-20.5-11.8-85.5-10.9-92.8-10.8
	c-1.8,0-3.5,1-4.4,2.6c-0.9,1.6-0.9,3.5-0.1,5.1c3.5,6.4,35.2,63.2,55.7,75c8.1,4.8,17.3,7.4,26.7,7.6c2.3,0,4.7-0.2,7-0.6
	c9.5-1.6,18-6.6,23.8-14.2l17.8,10.7c4.9,3,8.4,7.8,9.8,13.4c-17.6,2.9-30.5,18-30.5,35.8v0.4c-10.4-1.5-21,1.6-29,8.5
	c-8,6.9-12.6,16.9-12.6,27.5h-1.6c-11.8,0-23.5,1.1-35.1,3.3c-7.2,1.4-14.1,4-20.4,7.8V296c0-2.9-2.3-5.2-5.2-5.2H94.4
	c-2.9,0-5.2,2.3-5.2,5.2v103.9c0,2.9,2.3,5.2,5.2,5.2h31.2c2.9,0,5.2-2.3,5.2-5.2v-16.6c6.7,4.2,14.1,7.1,21.8,8.6
	c10,1.9,20.1,2.8,30.2,2.8h74.5c9.6,0,19.1-1.3,28.3-3.7l101.7-30C398.5,357.9,405,346.5,402,335.4z M296.7,137.9
	c10.9-10.9,51.1-23.4,73.5-29.5c-6.1,22.4-18.6,62.6-29.5,73.5c-11.7,11.7-29.2,17.7-43.8,7l15.4-15.4l11.3,5.7
	c2.6,1.3,5.7,0.3,7-2.3s0.3-5.7-2.3-7l-8.2-4.1l10.6-10.6l11.4,5.7c2.6,1.3,5.7,0.3,7-2.3c1.3-2.6,0.3-5.7-2.3-7l-8.3-4.1l13.3-13.3
	c1.3-1.3,1.9-3.2,1.4-5.1c-0.5-1.8-1.9-3.2-3.7-3.7c-1.8-0.5-3.7,0.1-5,1.4l-13.3,13.3l-4.1-8.3c-1.3-2.6-4.4-3.6-7-2.3
	c-2.6,1.3-3.6,4.4-2.3,7l5.7,11.3l-10.6,10.6l-4.1-8.2c-1.3-2.6-4.4-3.6-7-2.3s-3.6,4.4-2.3,7l5.7,11.3l-15.4,15.4
	C279,167.1,285,149.6,296.7,137.9z M206.8,208.9c-9.3,1.2-18.8-0.8-26.8-5.8c-13.3-7.7-35.8-43.3-47.5-63.4
	c23.2,0.1,65.3,1.7,78.7,9.4c14.7,8.5,25.2,24.3,17.7,41.6l-18.6-11.1l2.7-13.3c0.5-2.8-1.3-5.4-4.1-6c-2.8-0.6-5.5,1.2-6.1,3.9
	l-2,9.7l-13-7.7l2.6-12.9c0.5-2.8-1.3-5.4-4.1-6c-2.8-0.6-5.5,1.2-6.1,3.9l-1.9,9.3l-16.1-9.6c-2.5-1.5-5.7-0.7-7.1,1.8
	c-1.5,2.5-0.7,5.7,1.8,7.1l16.1,9.6l-6.7,5.9c-2.2,1.9-2.4,5.2-0.4,7.3c1.9,2.2,5.2,2.4,7.3,0.4l9.1-8.1l12.8,7.7l-6.3,5.6
	c-2.2,1.9-2.4,5.2-0.5,7.3c1.9,2.2,5.2,2.4,7.3,0.5l8.8-7.8l18.8,11.2C219.1,204.6,213.2,207.9,206.8,208.9z M224.3,275.2
	c3.2,0,6.4,0.6,9.3,1.8c1.8,0.7,3.9,0.4,5.3-0.9c1.5-1.3,2.1-3.3,1.6-5.2c-0.5-2-0.8-4-0.8-6.1c0-13.6,10.5-24.9,24.1-25.9
	c13.6-1,25.6,8.7,27.5,22.2c0.2,1.5,1.1,2.8,2.3,3.7c1.3,0.8,2.8,1,4.3,0.6c1.3-0.4,2.7-0.6,4.1-0.6c8.6,0,15.6,7,15.6,15.6
	c0,3-0.9,5.9-2.5,8.4c-0.9,1.4-1.1,3.2-0.5,4.8c0.6,1.6,2,2.7,3.7,3.1c11.7,2.8,20,13.2,20.1,25.3c0,3.9-0.8,7.7-2.5,11.2l-25.5,7.8
	c-1.3-8.1-7.2-14.7-15.2-16.8l-22.8-6.1l-44.2-13c-3.1-0.9-6.3-1.6-9.5-2.2c0.2-0.6,0.3-1.1,0.4-1.7c0-2.9,2.3-5.2,5.2-5.2
	c0.5,0,1.1,0.1,1.6,0.2c2.7,1.1,5.7-0.2,6.7-2.9c1.1-2.6-0.2-5.7-2.8-6.7c-1.7-0.7-3.6-1-5.5-1c-8.6,0-15.6,7-15.6,15.6
	c0,0.1,0.1,0.2,0.1,0.4c-2.8-0.2-5.5-0.4-8.3-0.4h-2.2C198.3,286.8,209.9,275.2,224.3,275.2z M120.4,394.6H99.6v-93.5h20.8V394.6z
	 M384.6,350.8l-101.7,30c-8.3,2.2-16.9,3.3-25.5,3.4h-74.5c-9.5,0-18.9-0.9-28.3-2.7c-6.7-1.3-13-3.9-18.8-7.5l-5-3.1v-46.4l0.6-0.4
	c6.5-4.7,13.9-8,21.8-9.5c10.9-2.1,22-3.1,33.1-3.1h14.2c8.4,0,16.8,1.2,24.8,3.5l44.4,13l22.9,6.1c5.5,1.4,8.8,7.1,7.4,12.6v0.1
	l0,0.1v0c-1.2,4.5-5.4,7.7-10,7.7c-0.9,0-1.8-0.1-2.7-0.3l-61.7-16.5c-1.8-0.5-3.8-0.1-5.1,1.3c-1.3,1.3-1.9,3.3-1.4,5.1
	c0.5,1.8,2,3.2,3.8,3.7l61.7,16.5c1.7,0.5,3.5,0.7,5.3,0.7c8.4,0,15.9-5.1,19.1-12.8l70.3-21.5c5.6-1.5,11.2,1.9,12.7,7.4
	c0.2,0.9,0.3,1.8,0.3,2.7C392.3,345.6,389.1,349.7,384.6,350.8z"/>
<path class="st1" d="M255.7,272.4c1.6,0,3.1-0.7,4.1-2c1-1.3,1.3-2.9,1-4.4c-0.1-0.4-0.1-0.8-0.1-1.1c0-2.9,2.3-5.2,5.2-5.2
	c2.5,0,4.7,1.8,5.1,4.3c0.2,1.4,0.9,2.6,2,3.4c1.1,0.8,2.5,1.2,3.9,1c2.8-0.4,4.8-3,4.4-5.8c-1.2-8.1-8.4-13.9-16.5-13.3
	c-8.1,0.6-14.4,7.4-14.4,15.6c0,1.2,0.1,2.4,0.4,3.6C251.2,270.7,253.3,272.4,255.7,272.4z"/>
<path class="st1" d="M309.9,310.7c-0.3,1.3-0.1,2.8,0.7,3.9c0.7,1.2,1.9,2,3.2,2.3c2.3,0.6,3.9,2.6,3.9,5c0,2.9,2.3,5.2,5.2,5.2
	c2.9,0,5.2-2.3,5.2-5.2c0-7.2-5-13.5-12-15.1C313.3,306.1,310.5,307.9,309.9,310.7z"/>
<path class="st1" d="M275.2,288.6c-7.4-2-15.2,1.7-18.3,8.8c-1.1,2.6,0.1,5.7,2.8,6.8c2.6,1.1,5.7-0.1,6.8-2.8c1-2.3,3.6-3.5,6-2.9
	c1.3,0.4,2.5,1.2,3.2,2.4c0.7,1.2,0.9,2.6,0.5,3.9c-0.7,2.8,0.9,5.6,3.7,6.4c0.4,0.1,0.9,0.2,1.3,0.2c2.4,0,4.4-1.6,5-3.8
	C288.4,299.4,283.5,290.8,275.2,288.6z"/>
<path class="st1" d="M297,280.4c2.9,0,5.2,2.3,5.2,5.2c0,2.9,2.3,5.2,5.2,5.2s5.2-2.3,5.2-5.2c0-8.6-7-15.6-15.6-15.6
	c-2.9,0-5.2,2.3-5.2,5.2C291.8,278,294.1,280.4,297,280.4z"/>
</svg>
