<?xml version="1.0" encoding="utf-8"?>
<!-- Generator: Adobe Illustrator 22.0.1, SVG Export Plug-In . SVG Version: 6.00 Build 0)  -->
<svg version="1.1" id="Слой_1" xmlns="http://www.w3.org/2000/svg" xmlns:xlink="http://www.w3.org/1999/xlink" x="0px" y="0px"
	 viewBox="0 0 500 500" style="enable-background:new 0 0 500 500;" xml:space="preserve">
<style type="text/css">
	.st0{fill:#00ACE5;}
	.st1{fill:#F9F9F9;}
</style>
<g>
	<circle class="st0" cx="250" cy="250" r="250"/>
</g>
<g>
	<g>
		<g>
			<path class="st1" d="M192.5,395.5c16.2,0,29.3-13.2,29.3-29.3c0-16.2-13.2-29.3-29.3-29.3c-16.2,0-29.3,13.2-29.3,29.3
				C163.2,382.4,176.3,395.5,192.5,395.5z M192.5,346.8c10.7,0,19.4,8.7,19.4,19.4c0,10.7-8.7,19.4-19.4,19.4
				c-10.7,0-19.4-8.7-19.4-19.4C173.1,355.5,181.8,346.8,192.5,346.8z"/>
			<path class="st1" d="M350.9,204.6h-79.8v-44.7h39c0,0,0,0,0,0c0,0,0,0,0,0h57c4.7,0,8.9-2.4,11.4-6.4c2.5-4,2.7-8.9,0.6-13.1
				c-5.2-10.3-12.2-19.6-20.7-27.6c-2-1.9-5.2-1.8-7,0.2c-1.9,2-1.8,5.2,0.2,7c7.7,7.2,13.9,15.5,18.6,24.8c0.8,1.6,0.2,2.9-0.1,3.4
				c-0.3,0.5-1.2,1.6-2.9,1.6h-52.7c-2.4-13.9-8.4-28.5-17.4-41.5c-4.6-6.8-9.8-12.8-15-17.6c19,2,36.5,7.4,51.3,15.9
				c2.4,1.4,5.4,0.6,6.8-1.8c1.4-2.4,0.6-5.4-1.8-6.8c-20.6-11.9-46-18.2-73.2-18.2c-52.2,0-94.8,22.6-113.9,60.5
				c-2.1,4.2-1.9,9.1,0.6,13.1c2.5,4,6.7,6.4,11.4,6.4h98.1v44.7h-81.9c-4,0-7.9,0.7-11.5,2l-15.4-15.4
				c-7.1-7.1-16.6-11.1-26.7-11.1H95.4c-8.9,0-16.1,7.2-16.1,16.1c0,8.9,7.2,16.1,16.1,16.1h30.1c1.5,0,2.9,0.6,4,1.6l16.8,16.8
				c-0.6,2.4-0.9,5-0.9,7.6v100.5c0,0.4,0,0.8,0,1.2c-4.3,7.7-6.8,16.7-6.8,26.2c0,12.2,4,23.7,11.6,33.3c1.7,2.2,4.8,2.5,7,0.8
				c2.2-1.7,2.5-4.8,0.8-7c-6.2-7.8-9.4-17.2-9.4-27.1c0-24.2,19.7-43.8,43.8-43.8c24.2,0,43.8,19.7,43.8,43.8
				c0,24.2-19.7,43.8-43.8,43.8c-6.2,0-12.2-1.3-17.8-3.8c-2.5-1.1-5.5,0-6.6,2.5c-1.1,2.5,0,5.5,2.5,6.6c6.9,3.1,14.3,4.6,21.9,4.6
				c29.7,0,53.8-24.1,53.8-53.8c0,0,0-0.1,0-0.1h90.9v11.9c-9.4,2.2-16.3,10.7-16.3,20.7c0,11.8,9.6,21.3,21.3,21.3
				c11.8,0,21.3-9.6,21.3-21.3c0-10-7-18.5-16.3-20.7V366h10.3c15,0,27.2-12.2,27.2-27.2V238.4C384.7,219.8,369.5,204.6,350.9,204.6
				z M163.1,150c-1.7,0-2.6-1.1-2.9-1.6c-0.3-0.5-0.9-1.8-0.1-3.4c15.3-30.3,47.6-49.9,88.2-54.1c-5.3,4.9-10.4,10.8-15.1,17.6
				c-8.9,13.1-15,27.6-17.4,41.5C215.7,150,163.1,150,163.1,150z M225.8,150c2.3-12,7.7-24.5,15.5-35.9c7.3-10.6,16-19.2,23.7-23.5
				c7.8,4.3,16.5,12.9,23.7,23.5c7.8,11.4,13.2,23.9,15.5,35.9H225.8z M150.4,220.8L136.5,207c-2.9-2.9-6.8-4.6-11-4.6H95.4
				c-3.4,0-6.1-2.8-6.1-6.1c0-3.4,2.8-6.1,6.1-6.1h30.1c7.4,0,14.4,2.9,19.7,8.2l13.4,13.4C155.4,214.2,152.6,217.3,150.4,220.8z
				 M353.5,398.7c0,6.3-5.1,11.4-11.4,11.4c-6.3,0-11.4-5.1-11.4-11.4c0-6.3,5.1-11.4,11.4-11.4
				C348.4,387.3,353.5,392.4,353.5,398.7z M357.5,356.1H245.3c-4.7-24.9-26.6-43.7-52.8-43.7c-14.4,0-27.4,5.7-37.1,14.9v-30.6h67.8
				c0.9,1.2,1.9,2.3,3,3.3c1.6,1.6,3.4,3.1,5.3,4.5c0,0.4,0.1,0.9,0.2,1.3c0.7,3.3,3.1,6.1,6.3,7.2l66.3,24.4
				c1.6,0.6,3.3,0.9,4.9,0.9c3.6,0,7.2-1.4,9.9-4.1c3.9-3.9,5.2-9.6,3.2-14.8l-8.4-22.7h60.7v42.2h0
				C374.7,348.4,367,356.1,357.5,356.1z M284.2,269.6l-4.4-4.4l8.7-8.7c0,0,0,0,0,0l0.1,0l24.4,66.3c0.8,2.2-0.4,3.7-0.9,4.3
				c-0.6,0.6-2.1,1.8-4.3,0.9l-66.3-24.4l0-0.1l31.3-31.3l4.4,4.4c1,1,2.2,1.5,3.5,1.5s2.5-0.5,3.5-1.5
				C286.1,274.7,286.1,271.5,284.2,269.6z M269.2,261.7C269.2,261.7,269.2,261.7,269.2,261.7C269.2,261.7,269.2,261.7,269.2,261.7
				l-33.5,33.5c-0.9-0.7-1.7-1.4-2.5-2.2c-12.3-12.3-12.3-32.3,0-44.6c12.3-12.3,32.3-12.3,44.6,0c0.8,0.8,1.5,1.6,2.2,2.5
				L269.2,261.7z M374.7,286.7h-64.4l-12.4-33.6c-1.2-3.2-3.9-5.6-7.2-6.3c-0.4-0.1-0.9-0.2-1.3-0.2c-1.3-1.9-2.8-3.7-4.5-5.3
				c-16.2-16.2-42.5-16.2-58.7,0c-12.3,12.3-15.2,30.3-8.9,45.4h-61.9v-48.3c0-13.1,10.7-23.8,23.8-23.8h171.7
				c13.1,0,23.8,10.7,23.8,23.8V286.7z"/>
		</g>
	</g>
</g>
</svg>
